<svg width="1.25rem" height="1.25rem" viewBox="0 0 20 20" fill="none" xmlns="http://www.w3.org/2000/svg"><path d="M8.73889 1.36816L7.05883 0.928257C6.33102 0.735163 5.55628 0.838912 4.90501 1.21668C4.25374 1.59446 3.77927 2.21531 3.58598 2.94269L3.16194 4.53332C4.54951 2.8066 6.5443 1.67447 8.73889 1.36816Z" fill="#676A70"></path><path d="M1.34235 11.3813L0.929042 12.9371C0.735842 13.6645 0.839646 14.4388 1.21763 15.0897C1.59561 15.7406 2.2168 16.2148 2.94458 16.408L4.55487 16.8372C2.83602 15.4867 1.68907 13.5388 1.34235 11.3813Z" fill="#676A70"></path><path d="M17.0587 3.58109L15.2498 3.10095C16.1625 3.80262 16.9267 4.67846 17.4979 5.67766C18.0692 6.67686 18.4363 7.77951 18.5777 8.92162L19.0742 7.04398C19.265 6.3177 19.16 5.54545 18.7822 4.89639C18.4045 4.24733 17.7847 3.77436 17.0587 3.58109Z" fill="#676A70"></path><path d="M11.216 18.6049L12.9471 19.0716C13.6749 19.2647 14.4497 19.1609 15.1009 18.7832C15.7522 18.4054 16.2267 17.7845 16.42 17.0571L16.9084 15.2224C15.5312 17.0557 13.4854 18.2714 11.216 18.6049Z" fill="#676A70"></path><path d="M10.001 2.04956C8.42817 2.04956 6.89071 2.51569 5.58299 3.389C4.27527 4.26231 3.25603 5.50358 2.65415 6.95585C2.05227 8.40811 1.8948 10.0061 2.20163 11.5479C2.50846 13.0896 3.26583 14.5057 4.37795 15.6172C5.49008 16.7288 6.90701 17.4857 8.44957 17.7924C9.99213 18.099 11.591 17.9416 13.0441 17.3401C14.4972 16.7386 15.7391 15.7199 16.6129 14.4129C17.4867 13.1059 17.9531 11.5692 17.9531 9.99732C17.9531 7.88944 17.1153 5.8679 15.624 4.37741C14.1326 2.88691 12.11 2.04956 10.001 2.04956ZM5.49752 6.01405C5.58255 5.57342 5.79639 5.16787 6.112 4.84868C6.42761 4.5295 6.83083 4.311 7.27068 4.22082C7.71052 4.13064 8.16724 4.17283 8.5831 4.34204C8.99896 4.51126 9.35528 4.79991 9.60702 5.1715C9.85876 5.54309 9.99461 5.98093 9.9974 6.42968C10.0002 6.87843 9.8698 7.31793 9.6227 7.69262C9.3756 8.06731 9.02289 8.36036 8.60917 8.53473C8.19545 8.7091 7.73929 8.75696 7.29836 8.67225C7.00544 8.61597 6.72648 8.50257 6.47743 8.3385C6.22837 8.17444 6.01411 7.96293 5.84687 7.71608C5.67963 7.46922 5.5627 7.19184 5.50276 6.8998C5.44281 6.60776 5.44104 6.30678 5.49752 6.01405ZM8.80129 12.8808C8.71578 13.3212 8.50157 13.7264 8.18574 14.0452C7.8699 14.364 7.46661 14.5821 7.02683 14.6719C6.58704 14.7616 6.1305 14.7191 5.71487 14.5497C5.29925 14.3803 4.94319 14.0915 4.6917 13.7199C4.44021 13.3483 4.30457 12.9106 4.30191 12.462C4.29926 12.0133 4.4297 11.574 4.67677 11.1995C4.92384 10.8249 5.27645 10.532 5.69004 10.3576C6.10362 10.1833 6.55964 10.1354 7.00046 10.22C7.29365 10.2762 7.57287 10.3897 7.82212 10.554C8.07138 10.7182 8.28577 10.93 8.45304 11.1771C8.62031 11.4243 8.73717 11.702 8.79693 11.9943C8.85669 12.2867 8.85817 12.5879 8.80129 12.8808ZM9.76478 11.0434C9.56909 11.0056 9.38899 10.9107 9.2472 10.7707C9.10541 10.6307 9.00829 10.4518 8.96808 10.2567C8.92787 10.0616 8.94637 9.85894 9.02126 9.67432C9.09614 9.4897 9.22405 9.33139 9.38885 9.21934C9.55365 9.10729 9.74797 9.04653 9.94728 9.04472C10.1466 9.04291 10.342 9.10013 10.5088 9.20917C10.6756 9.31821 10.8064 9.47418 10.8846 9.65741C10.9628 9.84064 10.985 10.0429 10.9483 10.2387C10.9239 10.3694 10.8738 10.494 10.801 10.6053C10.7281 10.7166 10.634 10.8123 10.524 10.8871C10.414 10.9619 10.2903 11.0142 10.16 11.0411C10.0297 11.0679 9.89539 11.0687 9.76478 11.0434ZM14.5017 13.9752C14.4167 14.4159 14.2028 14.8214 13.8872 15.1406C13.5716 15.4598 13.1684 15.6783 12.7285 15.7685C12.2887 15.8586 11.832 15.8165 11.4161 15.6472C11.0003 15.478 10.6439 15.1894 10.3922 14.8178C10.1405 14.4462 10.0046 14.0083 10.0018 13.5596C9.99903 13.1109 10.1294 12.6714 10.3765 12.2967C10.6236 11.922 10.9763 11.6289 11.3901 11.4545C11.8038 11.2802 12.2599 11.2323 12.7009 11.317C12.9938 11.3733 13.2727 11.4867 13.5218 11.6508C13.7709 11.8148 13.9851 12.0263 14.1524 12.2732C14.3196 12.5201 14.4365 12.7974 14.4965 13.0895C14.5564 13.3815 14.5582 13.6825 14.5017 13.9752ZM12.9988 9.76932C12.5579 9.68434 12.1521 9.47062 11.8328 9.15518C11.5134 8.83974 11.2948 8.43675 11.2046 7.99715C11.1143 7.55754 11.1565 7.10107 11.3258 6.68544C11.4951 6.26981 11.784 5.91369 12.1557 5.66209C12.5275 5.41048 12.9656 5.27471 13.4146 5.27192C13.8636 5.26913 14.3034 5.39945 14.6783 5.64641C15.0531 5.89338 15.3464 6.24589 15.5208 6.65938C15.6953 7.07288 15.7432 7.52879 15.6584 7.96948C15.6024 8.26248 15.4892 8.54157 15.3252 8.79079C15.1611 9.04001 14.9496 9.25446 14.7025 9.42188C14.4555 9.5893 14.1779 9.70639 13.8855 9.76647C13.5932 9.82655 13.2918 9.82843 12.9988 9.77201V9.76932Z" fill="#676A70"></path></svg>