<svg width="1.25rem" height="1.25rem" viewBox="0 0 20 20" fill="none" xmlns="http://www.w3.org/2000/svg"><path d="M10.0012 5.72696C7.63646 5.72696 5.72904 7.6348 5.72904 10.0001C5.72904 12.3654 7.63646 14.2732 10.0012 14.2732C12.366 14.2732 14.2734 12.3654 14.2734 10.0001C14.2734 7.6348 12.366 5.72696 10.0012 5.72696ZM10.0012 12.7782C8.47304 12.7782 7.22374 11.5323 7.22374 10.0001C7.22374 8.46786 8.46933 7.22199 10.0012 7.22199C11.5331 7.22199 12.7787 8.46786 12.7787 10.0001C12.7787 11.5323 11.5294 12.7782 10.0012 12.7782ZM15.4446 5.55217C15.4446 6.1063 14.9984 6.54886 14.4481 6.54886C13.8941 6.54886 13.4517 6.10258 13.4517 5.55217C13.4517 5.00175 13.8978 4.55548 14.4481 4.55548C14.9984 4.55548 15.4446 5.00175 15.4446 5.55217ZM18.2741 6.56373C18.2109 5.22861 17.906 4.04597 16.9281 3.0716C15.954 2.09722 14.7716 1.79226 13.4368 1.72532C12.0611 1.64722 7.93763 1.64722 6.56191 1.72532C5.2308 1.78855 4.04843 2.0935 3.07055 3.06788C2.09267 4.04225 1.7915 5.22489 1.72458 6.56001C1.6465 7.93604 1.6465 12.0604 1.72458 13.4364C1.78779 14.7715 2.09267 15.9542 3.07055 16.9286C4.04843 17.9029 5.22709 18.2079 6.56191 18.2748C7.93763 18.3529 12.0611 18.3529 13.4368 18.2748C14.7716 18.2116 15.954 17.9067 16.9281 16.9286C17.9023 15.9542 18.2072 14.7715 18.2741 13.4364C18.3522 12.0604 18.3522 7.93976 18.2741 6.56373ZM16.4968 14.9129C16.2068 15.6418 15.6454 16.2034 14.9129 16.4972C13.816 16.9323 11.2133 16.8319 10.0012 16.8319C8.78909 16.8319 6.18265 16.9286 5.08951 16.4972C4.36075 16.2071 3.79931 15.6455 3.50558 14.9129C3.07055 13.8158 3.17094 11.2125 3.17094 10.0001C3.17094 8.78769 3.07427 6.18068 3.50558 5.08729C3.79559 4.35837 4.35704 3.7968 5.08951 3.503C6.18637 3.06788 8.78909 3.16829 10.0012 3.16829C11.2133 3.16829 13.8198 3.0716 14.9129 3.503C15.6417 3.79308 16.2031 4.35465 16.4968 5.08729C16.9319 6.18439 16.8315 8.78769 16.8315 10.0001C16.8315 11.2125 16.9319 13.8195 16.4968 14.9129Z" fill="#676A70"></path></svg>