<svg width="1.25rem" height="1.25rem" viewBox="0 0 20 20" fill="none" xmlns="http://www.w3.org/2000/svg"><path d="M5.67474 17.9163H2.34896V7.20635H5.67474V17.9163ZM4.01006 5.74541C2.94658 5.74541 2.08398 4.86455 2.08398 3.80107C2.08398 3.29025 2.28691 2.80034 2.64812 2.43913C3.00933 2.07792 3.49923 1.875 4.01006 1.875C4.52088 1.875 5.01079 2.07792 5.372 2.43913C5.73321 2.80034 5.93613 3.29025 5.93613 3.80107C5.93613 4.86455 5.07318 5.74541 4.01006 5.74541ZM18.1221 17.9163H14.8034V12.7028C14.8034 11.4602 14.7784 9.86683 13.0743 9.86683C11.3452 9.86683 11.0802 11.2168 11.0802 12.6132V17.9163H7.75801V7.20635H10.9477V8.66728H10.9943C11.4383 7.82581 12.5229 6.93779 14.141 6.93779C17.5069 6.93779 18.1257 9.15426 18.1257 12.0332V17.9163H18.1221Z" fill="#676A70"></path></svg>