<svg width="1.25rem" height="1.25rem" viewBox="0 0 20 20" fill="none" xmlns="http://www.w3.org/2000/svg"><path d="M16.6195 6.60521C16.6301 6.75325 16.6301 6.90133 16.6301 7.04938C16.6301 11.565 13.1931 16.7681 6.91138 16.7681C4.97609 16.7681 3.17829 16.2076 1.66602 15.2347C1.94098 15.2664 2.20534 15.277 2.49089 15.277C4.08774 15.277 5.55773 14.7377 6.7316 13.8176C5.2299 13.7859 3.97143 12.8024 3.53783 11.4487C3.74936 11.4804 3.96085 11.5016 4.18295 11.5016C4.48963 11.5016 4.79633 11.4593 5.08185 11.3853C3.51671 11.068 2.34281 9.69321 2.34281 8.03288V7.99059C2.79753 8.2444 3.32634 8.40303 3.88679 8.42416C2.96674 7.81078 2.36397 6.76383 2.36397 5.57939C2.36397 4.94488 2.53314 4.36324 2.82927 3.85562C4.51075 5.92838 7.03827 7.282 9.87243 7.43008C9.81956 7.17627 9.78783 6.91191 9.78783 6.64752C9.78783 4.76509 11.3107 3.23169 13.2037 3.23169C14.1872 3.23169 15.0755 3.64413 15.6994 4.31037C16.4714 4.16232 17.2117 3.87678 17.8674 3.4855C17.6135 4.27867 17.0742 4.94491 16.3657 5.3679C17.0531 5.2939 17.7193 5.10351 18.3327 4.83915C17.8674 5.51594 17.2858 6.11871 16.6195 6.60521Z" fill="#676A70"></path></svg>