<svg xmlns="http://www.w3.org/2000/svg" width="20" height="20" fill="#00D170" viewBox="0 0 24 24"><path fill="#3A3D42" d="M16.5 2a3.5 3.5 0 0 1 3.163 5.001L21 7a1 1 0 0 1 1 1v5a1 1 0 0 1-1 1h-1v6a1 1 0 0 1-.883.993L19 21H5a1 1 0 0 1-1-1v-6H3a1 1 0 0 1-1-1V8a1 1 0 0 1 1-1l1.337.001A3.5 3.5 0 0 1 7.5 2c1.96 0 3.421 1.168 4.439 3.018l.061.118.061-.118c.975-1.772 2.357-2.92 4.196-3.012L16.5 2Zm-5.25 12H6v5h5.25v-5ZM18 14h-5.25v5H18v-5Zm-6.75-5H4v3h7.25V9ZM20 9h-7.25v3H20V9ZM7.5 4a1.5 1.5 0 0 0 0 3h3.154a8.096 8.096 0 0 0-.468-1.018C9.485 4.707 8.602 4 7.5 4Zm9 0c-1.102 0-1.985.707-2.686 1.982A7.957 7.957 0 0 0 13.346 7H16.5a1.5 1.5 0 0 0 0-3Z"/><path fill="url(#a)" d="M16.5 2a3.5 3.5 0 0 1 3.163 5.001L21 7a1 1 0 0 1 1 1v5a1 1 0 0 1-1 1h-1v6a1 1 0 0 1-.883.993L19 21H5a1 1 0 0 1-1-1v-6H3a1 1 0 0 1-1-1V8a1 1 0 0 1 1-1l1.337.001A3.5 3.5 0 0 1 7.5 2c1.96 0 3.421 1.168 4.439 3.018l.061.118.061-.118c.975-1.772 2.357-2.92 4.196-3.012L16.5 2Zm-5.25 12H6v5h5.25v-5ZM18 14h-5.25v5H18v-5Zm-6.75-5H4v3h7.25V9ZM20 9h-7.25v3H20V9ZM7.5 4a1.5 1.5 0 0 0 0 3h3.154a8.096 8.096 0 0 0-.468-1.018C9.485 4.707 8.602 4 7.5 4Zm9 0c-1.102 0-1.985.707-2.686 1.982A7.957 7.957 0 0 0 13.346 7H16.5a1.5 1.5 0 0 0 0-3Z"/><defs><linearGradient id="a" x1="2" x2="19.917" y1="21" y2=".205" gradientUnits="userSpaceOnUse"><stop stop-color="#013" stop-opacity=".08"/><stop offset="1" stop-color="#013" stop-opacity=".02"/></linearGradient></defs></svg>