<svg xmlns="http://www.w3.org/2000/svg" width="1.25rem" height="1.25rem" fill="#53565C" viewBox="0 0 20 20"><path d="M14.583 9.583a.833.833 0 1 0 0 1.667.833.833 0 0 0 0-1.667Z"/><path fill-rule="evenodd" d="M7.552 17.626c-1.967.834-4.124-.37-4.557-2.341l-.193.075a.833.833 0 0 1-1.135-.777V9.167c0-2.545 1.051-4.5 2.65-5.803C5.896 2.078 7.966 1.458 10 1.458s4.104.62 5.682 1.906c1.6 1.303 2.651 3.258 2.651 5.803V12.5c0 .334-.2.636-.508.767L7.552 17.626Zm2.35-10.537-6.443.758a5.386 5.386 0 0 1 1.911-3.19C6.604 3.65 8.284 3.124 10 3.124c1.716 0 3.396.526 4.63 1.531 1.213.99 2.036 2.472 2.036 4.51v2.782l-9.765 4.143a1.667 1.667 0 0 1-2.314-1.425l5.715-2.223a.833.833 0 0 0 .531-.776v-3.75a.833.833 0 0 0-.93-.828Zm-.736 4.008-5.833 2.268V9.54l5.833-.686v2.243Z" clip-rule="evenodd"/></svg>