<svg xmlns="http://www.w3.org/2000/svg" width="1.25rem" height="1.25rem" fill="none" viewBox="0 0 20 20"><path fill="#FFCE00" fill-rule="evenodd" d="M15.5 10.167a.833.833 0 0 1 .167 1.166l-1.5 2h1.667a.833.833 0 0 1 .666 1.334L14 18a.833.833 0 1 1-1.333-1l1.5-2H12.5a.833.833 0 0 1-.666-1.333l2.5-3.334a.833.833 0 0 1 1.166-.166Z" clip-rule="evenodd"/><path fill="#676A70" d="M12.157 1.95a8.333 8.333 0 0 0-4.314 16.1.833.833 0 0 0 .432-1.61 6.666 6.666 0 1 1 8.165-8.166.833.833 0 0 0 1.61-.431 8.334 8.334 0 0 0-5.893-5.893Z"/><path fill="#676A70" d="M10 5a.833.833 0 0 0-.827.736l-.006.097V9.73L7.08 10.947A.833.833 0 0 0 6.736 12l.045.086c.215.37.67.512 1.052.344l.087-.044 2.5-1.458a.833.833 0 0 0 .408-.622l.006-.098V5.833A.833.833 0 0 0 10 5Z"/></svg>