<svg xmlns="http://www.w3.org/2000/svg" width="20" height="20" fill="none" viewBox="0 0 24 24"><path fill="url(#a)" d="m6.263 17.58-2.84.947a.5.5 0 0 0 0 .948l2.84.947a.5.5 0 0 1 .316.316l.947 2.84a.5.5 0 0 0 .948 0l.947-2.84a.5.5 0 0 1 .316-.316l2.84-.947a.5.5 0 0 0 0-.948l-2.84-.947a.5.5 0 0 1-.316-.316l-.947-2.84a.5.5 0 0 0-.948 0l-.947 2.84a.5.5 0 0 1-.316.316Z"/><path fill="url(#b)" d="M4.013 4.33.423 5.527a.5.5 0 0 0 0 .948l3.59 1.197a.5.5 0 0 1 .316.316l1.197 3.59a.5.5 0 0 0 .948 0l1.197-3.59a.5.5 0 0 1 .316-.316l3.59-1.197a.5.5 0 0 0 0-.948L7.987 4.33a.5.5 0 0 1-.316-.316L6.474.424a.5.5 0 0 0-.948 0l-1.197 3.59a.5.5 0 0 1-.316.316Z"/><path fill="url(#c)" d="m13.513 9.83-5.09 1.697a.5.5 0 0 0 0 .948l5.09 1.697a.5.5 0 0 1 .316.316l1.697 5.09a.5.5 0 0 0 .948 0l1.697-5.09a.5.5 0 0 1 .316-.316l5.09-1.697a.5.5 0 0 0 0-.948l-5.09-1.697a.5.5 0 0 1-.316-.316l-1.697-5.09a.5.5 0 0 0-.948 0l-1.697 5.09a.5.5 0 0 1-.316.316Z"/><path fill="url(#d)" d="m13.75 9.75-5.327 1.777a.5.5 0 0 0 0 .948l5.327 1.776 1.776 5.327a.5.5 0 0 0 .948 0l1.776-5.327 5.327-1.776a.5.5 0 0 0 0-.948L18.25 9.75l-1.776-5.327a.5.5 0 0 0-.948 0L13.75 9.75Z"/><path fill="url(#e)" d="M4.25 4.25.423 5.528a.5.5 0 0 0 0 .948L4.25 7.751l1.276 3.827a.5.5 0 0 0 .948 0L7.75 7.75l3.827-1.276a.5.5 0 0 0 0-.948L7.75 4.25 6.474.424a.5.5 0 0 0-.948 0L4.25 4.25Z"/><path fill="url(#f)" d="m6.5 17.5-3.077 1.027a.5.5 0 0 0 0 .948L6.5 20.501l1.026 3.077a.5.5 0 0 0 .948 0L9.5 20.5l3.077-1.026a.5.5 0 0 0 0-.948L9.5 17.5l-1.026-3.077a.5.5 0 0 0-.948 0L6.5 17.5Z"/><defs><radialGradient id="a" cx="0" cy="0" r="1" gradientTransform="rotate(45 -.058 .139) scale(33.7116 57.4374)" gradientUnits="userSpaceOnUse"><stop stop-color="#F69"/><stop offset="1" stop-color="#E02291"/></radialGradient><radialGradient id="b" cx="0" cy="0" r="1" gradientTransform="rotate(45 -.058 .139) scale(33.7116 57.4374)" gradientUnits="userSpaceOnUse"><stop stop-color="#F69"/><stop offset="1" stop-color="#E02291"/></radialGradient><radialGradient id="c" cx="0" cy="0" r="1" gradientTransform="rotate(45 -.058 .139) scale(33.7116 57.4374)" gradientUnits="userSpaceOnUse"><stop stop-color="#F69"/><stop offset="1" stop-color="#E02291"/></radialGradient><radialGradient id="d" cx="0" cy="0" r="1" gradientTransform="rotate(45 -.058 .139) scale(33.7116 57.4374)" gradientUnits="userSpaceOnUse"><stop stop-color="#F69"/><stop offset="1" stop-color="#E02291"/></radialGradient><radialGradient id="e" cx="0" cy="0" r="1" gradientTransform="rotate(45 -.058 .139) scale(33.7116 57.4374)" gradientUnits="userSpaceOnUse"><stop stop-color="#F69"/><stop offset="1" stop-color="#E02291"/></radialGradient><radialGradient id="f" cx="0" cy="0" r="1" gradientTransform="rotate(45 -.058 .139) scale(33.7116 57.4374)" gradientUnits="userSpaceOnUse"><stop stop-color="#F69"/><stop offset="1" stop-color="#E02291"/></radialGradient></defs></svg>