<svg xmlns="http://www.w3.org/2000/svg" width="1.0625rem" height="1.0625rem" fill="#D2D4D6" viewBox="0 0 20 20"><path fill="#00D170" d="M9 .666c4.595 0 8.334 3.738 8.334 8.333 0 4.595-3.739 8.334-8.334 8.334S.667 13.594.667 8.999 4.405.666 9 .666Zm0 1.667c-3.676 0-6.666 2.995-6.666 6.666 0 3.672 2.99 6.667 6.666 6.667 3.677 0 6.667-2.995 6.667-6.667 0-3.671-2.99-6.666-6.667-6.666Zm-.83 6.66c0-.457.37-.827.827-.827h.014c.456 0 .826.37.826.826v3.34a.837.837 0 0 1-.837.834.83.83 0 0 1-.83-.83V8.992Zm-.211-3.1A1.04 1.04 0 0 1 9 4.85a1.04 1.04 0 0 1 1.042 1.042A1.04 1.04 0 0 1 9 6.934 1.04 1.04 0 0 1 7.96 5.893Z"/></svg>