<svg xmlns="http://www.w3.org/2000/svg" width="160" height="160" fill="none"><path fill="#D2D3D6" fill-rule="evenodd" d="M124 75c0 23.748-19.252 43-43 43H70V32h11c23.748 0 43 19.252 43 43Z" clip-rule="evenodd"/><path fill="#B5B8BD" d="M122.831 85c-4.508 18.925-21.526 33-41.831 33H70V85h52.831Z"/><path fill="#EDEEF0" fill-rule="evenodd" d="M113 75c0 23.748-19.252 43-43 43S27 98.748 27 75s19.252-43 43-43 43 19.252 43 43Z" clip-rule="evenodd"/><path fill="#fff" fill-rule="evenodd" d="M102 75c0 17.673-14.327 32-32 32-17.673 0-32-14.327-32-32 0-17.673 14.327-32 32-32 17.673 0 32 14.327 32 32Z" clip-rule="evenodd"/><path fill="#B5B8BD" fill-rule="evenodd" d="M56 75a2 2 0 1 1-3.999.001A2 2 0 0 1 56 75ZM88 75a2 2 0 1 1-3.999.001A2 2 0 0 1 88 75Z" clip-rule="evenodd"/><path stroke="#B5B8BD" stroke-linecap="round" stroke-linejoin="round" stroke-width="2" d="M66 83.778s4-4 8 0"/><path fill="#fff" fill-rule="evenodd" d="M52.799 42.207a1.5 1.5 0 0 1-.549 2.05A35.5 35.5 0 0 0 39.256 57.25a1.5 1.5 0 0 1-2.598-1.5A38.501 38.501 0 0 1 50.75 41.658a1.5 1.5 0 0 1 2.049.55ZM36.309 59.633a1.5 1.5 0 0 1 .822 1.955l-.053.13a1.5 1.5 0 1 1-2.782-1.122l.057-.141a1.5 1.5 0 0 1 1.956-.822Z" clip-rule="evenodd"/><path fill="#D2D3D6" d="m104.654 100.462 10.572.572 18.37 18.37a6.498 6.498 0 0 1 0 9.192 6.498 6.498 0 0 1-9.192 0l-.421-.421a6.5 6.5 0 0 0-.387-8.771l-18.942-18.942Z"/><path fill="#B5B8BD" d="m125.5 124-6.5 6.5h10a6.48 6.48 0 0 0 4.596-1.904A6.48 6.48 0 0 0 135.5 124h-10Z"/><path fill="#EDEEF0" fill-rule="evenodd" d="m101.596 97.404 22 22a6.498 6.498 0 0 1 0 9.192 6.498 6.498 0 0 1-9.192 0l-22-22 9.192-9.192Z" clip-rule="evenodd"/></svg>