<svg xmlns="http://www.w3.org/2000/svg" width="0.75rem" height="0.875rem" fill="#9C9FA3" viewBox="0 0 12 14"><path d="M2.667 3.005v-.667a2 2 0 0 1 2-2h2.666a2 2 0 0 1 2 2v.667h2a.667.667 0 1 1 0 1.333h-.666v7.333a2 2 0 0 1-2 2H3.333a2 2 0 0 1-2-2V4.338H.667a.667.667 0 0 1 0-1.333h2Zm1.333 0h4v-.667a.667.667 0 0 0-.667-.667H4.667A.667.667 0 0 0 4 2.338v.667Zm5.333 1.333H2.667v7.333c0 .368.298.667.666.667h5.334a.667.667 0 0 0 .666-.667V4.338ZM4 7.005a.667.667 0 0 1 1.333 0v3.333a.667.667 0 1 1-1.333 0V7.005Zm2.667 0a.667.667 0 1 1 1.333 0v3.333a.667.667 0 1 1-1.333 0V7.005Z"/></svg>