<svg xmlns="http://www.w3.org/2000/svg" width="1.125rem" height="1.125rem" fill="none" viewBox="0 0 18 18"><path fill="#676A70" fill-rule="evenodd" d="M9 .667a8.333 8.333 0 1 1 0 16.666A8.333 8.333 0 0 1 9 .667Zm0 1.666a6.667 6.667 0 1 0 0 13.334A6.667 6.667 0 0 0 9 2.333ZM9 4c.427 0 .78.322.828.736l.005.097V8.73l2.087 1.217c.369.215.511.67.344 1.053l-.044.086a.834.834 0 0 1-1.053.344l-.087-.044-2.5-1.458a.833.833 0 0 1-.408-.622l-.006-.098V4.833C8.166 4.373 8.54 4 9 4Z" clip-rule="evenodd"/></svg>