<svg xmlns="http://www.w3.org/2000/svg" width="16" height="16" fill="#A3A3A3" viewBox="0 0 24 24"><path d="M11.868.35c3.638 0 6.35 2.742 6.682 6.386.668.429 1.05.918 1.05 1.418h-1.04a10.722 10.722 0 0 1-1.123 4.067l5.32 3.208v8.216H1.24v-8.216l5.119-3.087a10.72 10.72 0 0 1-1.186-4.188H4.135c0-.5.382-.989 1.05-1.42C5.515 3.093 8.228.35 11.867.35zm4.529 13.508c-1.187 1.497-2.77 2.486-4.53 2.486-1.716 0-3.266-.942-4.443-2.38l-4.244 2.56v5.18h2.94v-1.607l2.063-1.94h7.514l2.063 1.94v1.607h3.058v-5.18l-4.421-2.666zm-.577 6.239H8.06v1.607h7.76v-1.607zm.796-11.942H7.119c.272 3.17 2.437 6.25 4.749 6.25 2.31 0 4.476-3.08 4.748-6.25zM11.868 2.29c-2.225 0-3.957 1.431-4.554 3.54 1.278-.363 2.851-.586 4.553-.586s3.275.223 4.552.587c-.595-2.11-2.328-3.541-4.551-3.541z"/></svg>