<svg width="8.4375rem" height="2.5625rem" viewBox="0 0 135 41" fill="none" xmlns="http://www.w3.org/2000/svg"><g clip-path="url(#clip0)"><path d="M0 4.66797C0 2.45883 1.79086 0.667969 4 0.667969H131C133.209 0.667969 135 2.45883 135 4.66797V36.668C135 38.8771 133.209 40.668 131 40.668H4C1.79086 40.668 0 38.8771 0 36.668V4.66797Z" fill="black"></path><path d="M22.5004 6.33643C23.7504 6.33643 24.9354 6.95243 25.8404 8.06943C26.6544 9.07643 27.1254 10.2114 27.5724 11.3154L27.6164 11.4234C27.7384 11.7244 27.8524 12.0084 27.9734 12.2894C28.2004 12.8144 28.4144 13.3144 28.6214 13.8034L28.7634 13.8154C29.7844 13.9054 30.6664 14.0164 31.4284 14.1394C32.0334 14.2364 32.5624 14.3414 33.0254 14.4514C34.5704 14.8154 35.3754 15.2214 35.7904 15.5184L35.7934 15.5204C35.9414 15.6264 36.0174 15.8084 35.9934 15.9894L35.7984 17.4674C35.4494 20.0614 35.0244 23.3254 33.9254 26.2854C33.7704 26.7014 33.6034 27.1104 33.4204 27.5104C31.8574 30.7814 28.8694 33.2404 25.2594 34.0814C24.3734 34.2894 23.4484 34.3994 22.4984 34.3994C21.5444 34.3994 20.6164 34.2894 19.7254 34.0804C16.1834 33.2484 13.2404 30.8614 11.6584 27.6774C11.4224 27.1754 11.2114 26.6594 11.0214 26.1344C10.5364 24.7984 10.1864 23.4044 9.91637 22.0394C9.55837 20.2344 9.34237 18.4824 9.13837 16.9904L9.00437 15.9934C8.98037 15.8114 9.05637 15.6304 9.20537 15.5224C9.20737 15.5214 9.20937 15.5204 9.21237 15.5184C9.62637 15.2214 10.4314 14.8154 11.9764 14.4514C12.4384 14.3414 12.9654 14.2364 13.5684 14.1404C14.3314 14.0164 15.2154 13.9064 16.2384 13.8154C16.2844 13.8114 16.3324 13.8074 16.3804 13.8034C16.5874 13.3144 16.8004 12.8144 17.0274 12.2894C17.1484 12.0084 17.2634 11.7244 17.3854 11.4234C17.3994 11.3874 17.4144 11.3504 17.4294 11.3134C17.8764 10.2094 18.3484 9.07543 19.1614 8.06943C20.0654 6.95243 21.2514 6.33643 22.5004 6.33643ZM22.5004 8.74343C21.8144 8.74343 21.2864 9.26943 21.0324 9.58343C20.8374 9.82543 20.6644 10.0874 20.5064 10.3664C20.1674 10.9624 19.8974 11.6314 19.6164 12.3264C19.4944 12.6254 19.3694 12.9364 19.2374 13.2424C19.1794 13.3764 19.1224 13.5084 19.0664 13.6394C20.1044 13.5984 21.2454 13.5754 22.5004 13.5754C23.7564 13.5754 24.8974 13.5984 25.9344 13.6394C25.8784 13.5084 25.8224 13.3764 25.7644 13.2424C25.6324 12.9364 25.5064 12.6254 25.3854 12.3264C25.1044 11.6314 24.8334 10.9634 24.4954 10.3674C24.3374 10.0884 24.1644 9.82543 23.9684 9.58343C23.7144 9.26943 23.1864 8.74343 22.5004 8.74343Z" fill="url(#paint000_linear)"></path><path fill-rule="evenodd" clip-rule="evenodd" d="M131 1.66797H4C2.34315 1.66797 1 3.01112 1 4.66797V36.668C1 38.3248 2.34315 39.668 4 39.668H131C132.657 39.668 134 38.3248 134 36.668V4.66797C134 3.01112 132.657 1.66797 131 1.66797ZM4 0.667969C1.79086 0.667969 0 2.45883 0 4.66797V36.668C0 38.8771 1.79086 40.668 4 40.668H131C133.209 40.668 135 38.8771 135 36.668V4.66797C135 2.45883 133.209 0.667969 131 0.667969H4Z" fill="#A6A6A6"></path><path d="M106.309 17.7668C106.211 17.8081 106.105 17.8289 105.999 17.8279C105.89 17.8298 105.781 17.8096 105.679 17.7683C105.578 17.7271 105.486 17.6657 105.409 17.5879C105.333 17.5117 105.272 17.4213 105.231 17.3218C105.19 17.2222 105.169 17.1156 105.169 17.0079C105.166 16.9013 105.186 16.7953 105.227 16.697C105.269 16.5987 105.331 16.5104 105.409 16.4379C105.486 16.3601 105.578 16.2987 105.679 16.2575C105.781 16.2162 105.89 16.1959 105.999 16.1979C106.105 16.1969 106.211 16.2177 106.309 16.259C106.407 16.3002 106.495 16.3611 106.569 16.4379C106.647 16.5104 106.709 16.5987 106.75 16.697C106.792 16.7953 106.812 16.9013 106.809 17.0079C106.809 17.1156 106.788 17.2222 106.747 17.3218C106.705 17.4213 106.645 17.5117 106.569 17.5879C106.495 17.6646 106.407 17.7255 106.309 17.7668Z" fill="white"></path><path d="M89.8789 16.7779H88.8589V23.5779H89.8789V16.7779Z" fill="white"></path><path d="M86.3849 17.5524C86.4847 17.5128 86.5916 17.4942 86.6989 17.4979C86.8062 17.4942 86.9131 17.5128 87.0129 17.5524C87.1127 17.5919 87.2032 17.6517 87.2789 17.7279C87.4274 17.8825 87.5103 18.0885 87.5103 18.3029C87.5103 18.5172 87.4274 18.7233 87.2789 18.8779C87.2042 18.9566 87.1142 19.0192 87.0145 19.062C86.9148 19.1048 86.8074 19.1269 86.6989 19.1269C86.5904 19.1269 86.483 19.1048 86.3833 19.062C86.2836 19.0192 86.1936 18.9566 86.1189 18.8779C86.043 18.8026 85.9828 18.713 85.9417 18.6143C85.9006 18.5156 85.8794 18.4098 85.8794 18.3029C85.8794 18.196 85.9006 18.0901 85.9417 17.9914C85.9828 17.8928 86.043 17.8032 86.1189 17.7279C86.1945 17.6517 86.2851 17.5919 86.3849 17.5524Z" fill="white"></path><path d="M85.9591 24.2792C86.0424 24.0866 86.08 23.8774 86.069 23.6679V20.2579H87.189V23.3879C87.1935 23.7794 87.1292 24.1686 86.999 24.5379C86.8847 24.8765 86.7046 25.1892 86.469 25.4579C86.2356 25.7187 85.9492 25.9266 85.629 26.0679C85.283 26.2205 84.9068 26.2923 84.529 26.2779H83.659L83.459 25.1879H84.129C84.6492 25.2322 85.1679 25.0865 85.589 24.7779C85.7492 24.6424 85.8759 24.4717 85.9591 24.2792Z" fill="white"></path><path d="M97.1595 19.3271C97.077 19.3615 96.9884 19.3788 96.899 19.3779C96.7095 19.3799 96.5266 19.3082 96.389 19.1779C96.2623 19.0501 96.1905 18.8778 96.189 18.6979C96.1869 18.5084 96.2587 18.3255 96.389 18.1879C96.455 18.1197 96.5344 18.0658 96.6221 18.0297C96.7099 17.9936 96.8041 17.9759 96.899 17.9779C96.9894 17.9764 97.0791 17.9944 97.1619 18.0306C97.2447 18.0669 97.3188 18.1205 97.379 18.1879C97.4454 18.2547 97.4974 18.3345 97.5318 18.4222C97.5662 18.5099 97.5823 18.6037 97.579 18.6979C97.5805 18.7873 97.5635 18.8762 97.5291 18.9588C97.4947 19.0413 97.4436 19.1159 97.379 19.1779C97.3167 19.242 97.2421 19.2928 97.1595 19.3271Z" fill="white"></path><path d="M98.779 19.3779C98.8715 19.3792 98.9632 19.3622 99.049 19.3279C99.1348 19.2936 99.213 19.2426 99.279 19.1779C99.4057 19.0501 99.4775 18.8778 99.479 18.6979C99.4811 18.5084 99.4094 18.3255 99.279 18.1879C99.2149 18.12 99.1373 18.0662 99.0512 18.03C98.9651 17.9939 98.8724 17.9761 98.779 17.9779C98.6872 17.9763 98.596 17.9941 98.5115 18.0303C98.427 18.0665 98.3512 18.1202 98.289 18.1879C98.2226 18.2547 98.1706 18.3345 98.1363 18.4222C98.1019 18.5099 98.0858 18.6037 98.089 18.6979C98.0875 18.7873 98.1045 18.8762 98.1389 18.9588C98.1734 19.0413 98.2244 19.1159 98.289 19.1779C98.3532 19.2423 98.4296 19.2932 98.5138 19.3275C98.5979 19.3619 98.6881 19.379 98.779 19.3779Z" fill="white"></path><path fill-rule="evenodd" clip-rule="evenodd" d="M107.549 19.0879C107.388 18.8768 107.183 18.7029 106.949 18.5779C106.689 18.4471 106.4 18.3819 106.109 18.3879C105.859 18.3818 105.611 18.426 105.379 18.5179C105.166 18.6016 104.972 18.7274 104.809 18.8879C104.651 19.0491 104.525 19.2392 104.439 19.4479C104.349 19.6701 104.305 19.9082 104.309 20.1479C104.294 20.5519 104.406 20.9505 104.629 21.2879C104.746 21.44 104.898 21.562 105.072 21.6437C105.246 21.7254 105.437 21.7646 105.629 21.7579L106.999 21.8079C107.008 21.9777 106.963 22.1461 106.869 22.2879C106.782 22.3663 106.678 22.4249 106.566 22.4594C106.454 22.4939 106.335 22.5037 106.219 22.4879H103.219C103 22.4893 102.784 22.4379 102.589 22.3379C102.491 22.2762 102.413 22.188 102.363 22.0835C102.314 21.9791 102.295 21.8627 102.309 21.7479V20.2579H101.219V21.6679C101.235 21.8763 101.19 22.0849 101.089 22.2679C101.009 22.3979 100.819 22.4579 100.539 22.4579H95.5389C95.3218 22.4761 95.1053 22.4158 94.9289 22.2879C94.8496 22.2062 94.7882 22.1088 94.7486 22.0021C94.709 21.8954 94.6921 21.7815 94.6989 21.6679V20.2579H93.6989V21.8579C93.6662 22.3134 93.8014 22.7652 94.0789 23.1279C94.2223 23.2844 94.3995 23.4063 94.597 23.4843C94.7945 23.5622 95.0072 23.5942 95.2189 23.5779H100.829C101.201 23.5848 101.56 23.4446 101.829 23.1879C102.019 23.3461 102.246 23.4529 102.489 23.4979C102.746 23.55 103.007 23.5768 103.269 23.5779H106.449C106.701 23.5853 106.95 23.523 107.169 23.3979C107.377 23.2883 107.553 23.1263 107.679 22.9279C107.822 22.7189 107.923 22.4848 107.979 22.2379C108.048 21.9701 108.081 21.6944 108.079 21.4179V20.6679C108.081 20.3925 108.037 20.1187 107.949 19.8579C107.872 19.5756 107.736 19.3131 107.549 19.0879ZM105.889 20.6679C105.731 20.6576 105.576 20.6239 105.429 20.5679C105.354 20.5362 105.291 20.4811 105.249 20.4109C105.208 20.3407 105.19 20.259 105.199 20.1779C105.191 20.0742 105.207 19.9702 105.246 19.8737C105.285 19.7773 105.345 19.691 105.422 19.6214C105.499 19.5519 105.591 19.501 105.691 19.4727C105.791 19.4443 105.897 19.4393 105.999 19.4579C106.147 19.4511 106.293 19.4895 106.419 19.5679C106.544 19.6372 106.654 19.7327 106.739 19.8479C106.83 19.9724 106.901 20.1108 106.949 20.2579C107 20.4026 107.027 20.5545 107.029 20.7079L105.889 20.6679Z" fill="white"></path><path d="M111.657 24.77C111.743 24.7339 111.836 24.7161 111.929 24.7179C112.021 24.7163 112.112 24.7341 112.197 24.7703C112.281 24.8065 112.357 24.8602 112.419 24.9279C112.485 24.9886 112.537 25.063 112.572 25.1459C112.606 25.2288 112.622 25.3182 112.619 25.4079C112.621 25.5005 112.605 25.5926 112.571 25.6785C112.536 25.7645 112.485 25.8426 112.419 25.9079C112.357 25.9755 112.281 26.0292 112.197 26.0654C112.112 26.1016 112.021 26.1195 111.929 26.1179C111.836 26.1197 111.743 26.1019 111.657 26.0657C111.571 26.0296 111.493 25.9758 111.429 25.9079C111.3 25.7734 111.229 25.5942 111.229 25.4079C111.228 25.3185 111.245 25.2299 111.28 25.1474C111.314 25.0648 111.365 24.9902 111.429 24.9279C111.493 24.86 111.571 24.8062 111.657 24.77Z" fill="white"></path><path d="M114.049 21.6679C114.054 21.7711 114.054 21.8746 114.049 21.9779C114.035 22.0695 113.997 22.1558 113.939 22.2279C113.878 22.3073 113.794 22.3666 113.699 22.3979C113.56 22.4424 113.415 22.4627 113.269 22.4579H111.609C111.402 22.4704 111.195 22.418 111.019 22.3079C110.933 22.2166 110.869 22.1072 110.831 21.9878C110.793 21.8684 110.782 21.742 110.799 21.6179V16.7779H109.699V21.8379C109.677 22.0812 109.708 22.3264 109.791 22.5562C109.874 22.786 110.007 22.9948 110.179 23.1679C110.541 23.4568 110.997 23.6027 111.459 23.5779H113.549C113.769 23.595 113.989 23.5615 114.194 23.48C114.398 23.3985 114.581 23.2712 114.729 23.1079C115.004 22.751 115.142 22.3077 115.119 21.8579V20.2579H114.029L114.049 21.6679Z" fill="white"></path><path d="M113.421 24.7671C113.509 24.7308 113.604 24.714 113.699 24.7179H113.709C113.889 24.723 114.061 24.7977 114.188 24.9263C114.314 25.0548 114.386 25.2274 114.389 25.4079C114.389 25.5941 114.318 25.7734 114.189 25.9079C114.125 25.9757 114.047 26.0296 113.961 26.0665C113.875 26.1034 113.782 26.1224 113.689 26.1224C113.595 26.1224 113.503 26.1034 113.417 26.0665C113.331 26.0296 113.253 25.9757 113.189 25.9079C113.123 25.8426 113.072 25.7645 113.037 25.6785C113.003 25.5926 112.987 25.5005 112.989 25.4079C112.986 25.3182 113.002 25.2288 113.036 25.1459C113.071 25.063 113.123 24.9886 113.189 24.9279C113.254 24.8582 113.333 24.8033 113.421 24.7671Z" fill="white"></path><path d="M117.509 23.6679C117.52 23.8774 117.483 24.0866 117.399 24.2792C117.316 24.4717 117.189 24.6424 117.029 24.7779C116.607 25.0849 116.089 25.2303 115.569 25.1879H115.299L115.479 26.2779H115.959C116.339 26.2835 116.717 26.212 117.069 26.0679C117.389 25.9266 117.676 25.7187 117.909 25.4579C118.138 25.1842 118.317 24.8729 118.439 24.5379C118.561 24.1669 118.622 23.7784 118.619 23.3879V20.2579H117.509V23.6679Z" fill="white"></path><path d="M124.509 20.9779C124.678 21.152 124.813 21.3553 124.909 21.5779C124.984 21.7524 125.028 21.9384 125.039 22.1279C125.047 22.3134 125.016 22.4985 124.947 22.6709C124.878 22.8433 124.773 22.9991 124.639 23.1279C124.483 23.2731 124.298 23.3844 124.097 23.455C123.895 23.5255 123.682 23.5537 123.469 23.5379H120.159L120.019 22.4679H123.489C123.557 22.4738 123.626 22.4663 123.691 22.4457C123.756 22.4251 123.817 22.3919 123.869 22.3479C123.909 22.3125 123.941 22.2694 123.963 22.2213C123.985 22.1731 123.998 22.1209 123.999 22.0679C123.996 21.9918 123.978 21.9171 123.945 21.8483C123.913 21.7795 123.866 21.7181 123.809 21.6679L121.429 19.1779L122.139 18.4579L124.509 20.9779Z" fill="white"></path><path d="M56.6154 25.9381C55.4528 25.9381 54.5104 24.9957 54.5104 23.8331V13.5083C54.5104 12.3458 55.4528 11.4033 56.6154 11.4033C57.778 11.4033 58.7204 12.3458 58.7204 13.5083V23.8331C58.7204 24.9957 57.7779 25.9381 56.6154 25.9381Z" fill="white"></path><path d="M49.2604 28.0382H44.0004C42.8406 28.0382 41.9004 27.0979 41.9004 25.9381C41.9004 24.7783 42.8406 23.8381 44.0004 23.8381L48.2104 23.8381V17.5281C48.2104 16.3684 49.1506 15.4282 50.3104 15.4282C51.4702 15.4282 52.4104 16.3684 52.4104 17.5282V24.8881C52.4104 26.6278 51.0001 28.0382 49.2604 28.0382Z" fill="white"></path><path d="M61.8704 32.2481C61.1377 32.2481 58.4234 32.2481 56.4696 32.2481C55.307 32.2481 54.3652 31.3057 54.3652 30.1432C54.3652 28.9806 55.3077 28.0382 56.4702 28.0382H60.8204V21.8683C60.8204 20.7058 61.7628 19.7633 62.9254 19.7633C64.0879 19.7633 65.0304 20.7038 65.0304 21.8664C65.0304 24.3032 65.0304 28.1087 65.0304 29.0782C65.0304 30.8228 63.615 32.2426 61.8704 32.2481Z" fill="white"></path><path d="M70.3204 28.0382C68.5625 28.0382 67.1359 26.616 67.1304 24.8581V15.5583C67.1304 14.3958 68.0728 13.4533 69.2354 13.4533C70.3979 13.4533 71.3404 14.3958 71.3404 15.5583V23.8381C71.3404 23.8381 74.1471 23.8381 75.5504 23.8381C76.7102 23.8381 77.6504 24.7783 77.6504 25.9381C77.6504 27.0979 76.7102 28.0382 75.5504 28.0382C73.8071 28.0382 70.3204 28.0382 70.3204 28.0382Z" fill="white"></path><path d="M62.9304 17.5181C64.0902 17.5181 65.0304 16.5779 65.0304 15.4181C65.0304 14.2584 64.0902 13.3181 62.9304 13.3181C61.7706 13.3181 60.8304 14.2584 60.8304 15.4181C60.8304 16.5779 61.7706 17.5181 62.9304 17.5181Z" fill="white"></path><path d="M69.2404 34.3481C70.4002 34.3481 71.3404 33.4079 71.3404 32.2481C71.3404 31.0884 70.4002 30.1482 69.2404 30.1482C68.0806 30.1482 67.1404 31.0884 67.1404 32.2481C67.1404 33.4079 68.0806 34.3481 69.2404 34.3481Z" fill="white"></path></g><defs><linearGradient id="paint000_linear" x1="22.4989" y1="6.33643" x2="22.4989" y2="34.3994" gradientUnits="userSpaceOnUse"><stop stop-color="#98D700"></stop><stop offset="1" stop-color="#009A53"></stop></linearGradient><clipPath id="clip0"><rect width="135" height="40" fill="white" transform="translate(0 0.667969)"></rect></clipPath></defs></svg>