<svg width="8.4375rem" height="2.5625rem" viewBox="0 0 135 41" fill="none" xmlns="http://www.w3.org/2000/svg"><path d="M130.1 40.6684L4.80043 40.6684C4.16773 40.6769 3.53976 40.5585 2.95357 40.3203C2.36738 40.082 1.83485 39.7288 1.38744 39.2814C0.940015 38.834 0.586767 38.3014 0.348545 37.7152C0.110322 37.1291 -0.00804732 36.5011 0.000424656 35.8684L0.000424656 5.46839C-0.00804732 4.8357 0.110322 4.20773 0.348545 3.62154C0.586767 3.03535 0.940015 2.50282 1.38744 2.0554C1.83485 1.60798 2.36738 1.25474 2.95357 1.01651C3.53976 0.778291 4.16773 0.659921 4.80043 0.668393L130.2 0.668393C131.473 0.668393 132.694 1.17411 133.595 2.07428C134.495 2.97446 135 4.19535 135 5.46839V35.9684C134.957 37.2358 134.421 38.4361 133.505 39.3139C132.59 40.1918 131.369 40.6777 130.1 40.6684Z" fill="#A6A6A6"></path><path d="M130.1 39.6685L4.8 39.6685C3.79218 39.6685 2.82563 39.2681 2.11299 38.5555C1.40036 37.8428 1 36.8763 1 35.8685L1 5.46846C1 4.46063 1.40036 3.49409 2.11299 2.78145C2.82563 2.06881 3.79218 1.66846 4.8 1.66846L130.2 1.66846C131.208 1.66846 132.174 2.06881 132.887 2.78145C133.6 3.49409 134 4.46063 134 5.46846V35.9685C133.94 36.9648 133.504 37.9013 132.78 38.5883C132.056 39.2752 131.098 39.6614 130.1 39.6685Z" fill="black"></path><path fill-rule="evenodd" clip-rule="evenodd" d="M100.857 13.7034V13.7234H102.187C102.412 13.7242 102.636 13.7041 102.857 13.6634C103.06 13.6167 103.253 13.5355 103.427 13.4234C103.599 13.3011 103.74 13.1401 103.837 12.9534C103.945 12.7174 104.007 12.4627 104.017 12.2034V11.9534C104.027 11.8035 104.027 11.6532 104.017 11.5034C103.997 11.3582 103.967 11.2145 103.927 11.0734C103.889 10.941 103.835 10.8135 103.767 10.6934C103.704 10.5779 103.623 10.4732 103.527 10.3834C103.422 10.2929 103.304 10.2187 103.177 10.1634C103.026 10.1106 102.868 10.0802 102.707 10.0734C102.523 10.0624 102.338 10.0932 102.167 10.1634C102.005 10.2292 101.859 10.3279 101.737 10.4534C101.608 10.5911 101.509 10.7547 101.447 10.9334C101.378 11.0978 101.344 11.2749 101.347 11.4534C101.34 11.6579 101.384 11.861 101.477 12.0434C101.561 12.2084 101.689 12.3469 101.847 12.4434C102.027 12.5514 102.229 12.6196 102.437 12.6434C102.696 12.6731 102.958 12.6731 103.217 12.6434C103.194 12.6879 103.164 12.7285 103.127 12.7634C103.077 12.8091 103.02 12.8463 102.957 12.8734C102.86 12.9097 102.76 12.9365 102.657 12.9534C102.504 12.9652 102.35 12.9652 102.197 12.9534L101.057 12.9534C101.025 12.9434 100.99 12.9434 100.957 12.9534L99.5573 12.9234C99.5415 12.9168 99.5245 12.9134 99.5073 12.9134C99.4902 12.9134 99.4732 12.9168 99.4573 12.9234C99.4548 12.9322 99.4529 12.9412 99.4519 12.9502L98.2673 12.9247V12.9234H98.2078C98.1919 12.9168 98.1745 12.9134 98.1573 12.9134C98.1402 12.9134 98.1232 12.9168 98.1074 12.9234L97.8773 12.9234C97.8343 12.9154 97.7934 12.8983 97.7573 12.8734C97.7104 12.8591 97.6686 12.8313 97.6374 12.7934C97.5986 12.7568 97.5679 12.7126 97.5473 12.6634C97.536 12.5972 97.536 12.5296 97.5473 12.4634V11.4634H96.7174V12.5834C96.7264 12.6695 96.7013 12.7557 96.6474 12.8234C96.5961 12.8758 96.5296 12.9108 96.4574 12.9234C96.3546 12.9395 96.2501 12.9395 96.1474 12.9234H92.2673C92.2177 12.9143 92.1722 12.8898 92.1374 12.8534C92.0878 12.8185 92.0495 12.7698 92.0274 12.7134C92.0093 12.6277 92.0093 12.5391 92.0274 12.4534C92.0239 12.3868 92.0239 12.32 92.0274 12.2534V11.9934L92.0873 11.7434C92.1573 11.6634 92.1573 11.5934 92.1573 11.5334L91.7673 11.4134L91.3773 11.2834C91.3773 11.2882 91.3819 11.2952 91.3877 11.3043C91.4064 11.3331 91.4383 11.3825 91.3773 11.4434C91.3358 11.4849 91.3347 11.5291 91.3335 11.5788C91.3323 11.6249 91.331 11.6757 91.2973 11.7334C91.2273 11.8534 91.2273 11.9734 91.2273 12.0934C91.2137 12.213 91.2137 12.3338 91.2273 12.4534C91.2115 12.5662 91.2115 12.6806 91.2273 12.7934C91.2625 12.9683 91.3378 13.1326 91.4473 13.2734C91.4856 13.3276 91.5291 13.3778 91.5773 13.4234C91.6842 13.5312 91.8141 13.6133 91.9574 13.6634C92.1053 13.7149 92.2607 13.7419 92.4174 13.7434H96.1173C96.4763 13.7701 96.8324 13.6632 97.1173 13.4434C97.1788 13.5044 97.2497 13.5551 97.3273 13.5934L97.5674 13.6834L97.8273 13.7334H98.2673V13.7034H99.5428C99.5574 13.7064 99.5726 13.7064 99.5873 13.7034H99.5974C99.6132 13.71 99.6302 13.7134 99.6474 13.7134C99.6645 13.7134 99.6815 13.71 99.6973 13.7034H100.857ZM102.507 10.8834C102.584 10.8731 102.661 10.8731 102.737 10.8834C102.844 10.8748 102.951 10.8956 103.047 10.9434C103.118 11.0063 103.173 11.0852 103.207 11.1734C103.245 11.2703 103.271 11.3708 103.287 11.4734V11.7734C103.006 11.854 102.708 11.854 102.427 11.7734C102.339 11.7472 102.262 11.6929 102.208 11.6189C102.154 11.5448 102.126 11.4551 102.127 11.3634C102.123 11.2868 102.14 11.2104 102.177 11.1434C102.207 11.0801 102.251 11.0251 102.307 10.9834C102.365 10.9344 102.434 10.9001 102.507 10.8834Z" fill="white"></path><path d="M102.587 8.21338L102.007 8.81338L102.597 9.41338L103.197 8.82338L102.587 8.21338Z" fill="white"></path><path d="M56.7438 8.53984C56.65 8.63361 56.5974 8.76079 56.5974 8.89339C56.6007 8.95484 56.6167 9.01494 56.6442 9.06998C56.6717 9.12502 56.7102 9.17383 56.7574 9.21339C56.8582 9.29804 56.9857 9.34444 57.1174 9.34444C57.249 9.34444 57.3765 9.29804 57.4774 9.21339C57.5579 9.12666 57.601 9.01169 57.5974 8.89339C57.5974 8.76079 57.5447 8.63361 57.4509 8.53984C57.3571 8.44607 57.23 8.39339 57.0974 8.39339C56.9647 8.39339 56.8376 8.44607 56.7438 8.53984Z" fill="white"></path><path d="M56.6474 13.6734H57.4973V9.87339H56.6474V13.6734Z" fill="white"></path><path d="M53.6674 13.7234H52.8474V9.01339H53.6674V13.7234Z" fill="white"></path><path d="M51.9573 13.5234C51.9475 13.8034 51.8935 14.0802 51.7973 14.3434C51.7024 14.5718 51.563 14.7792 51.3873 14.9534C51.2111 15.1264 50.9996 15.2594 50.7673 15.3434C50.501 15.4384 50.2201 15.4858 49.9373 15.4834H49.5273V14.6634H49.9373C50.1192 14.6666 50.3007 14.6465 50.4773 14.6034C50.6204 14.5683 50.7516 14.4959 50.8573 14.3934C50.9592 14.2894 51.0347 14.1625 51.0773 14.0234C51.124 13.837 51.1475 13.6455 51.1473 13.4534V11.4534H51.9573V13.5234Z" fill="white"></path><path d="M50.9573 10.0534L51.5473 9.45339L52.1473 10.0534L51.5473 10.6534L50.9573 10.0534Z" fill="white"></path><path fill-rule="evenodd" clip-rule="evenodd" d="M62.5073 11.2534C62.5152 11.7068 62.4266 12.1568 62.2473 12.5734C62.0941 12.9314 61.8361 13.2347 61.5073 13.4434C61.1705 13.6402 60.7874 13.7439 60.3973 13.7439C60.0072 13.7439 59.6242 13.6402 59.2873 13.4434C58.9556 13.2399 58.6939 12.9398 58.5373 12.5834C58.3514 12.1757 58.2591 11.7315 58.2673 11.2834V10.9534C58.2595 10.4999 58.3481 10.05 58.5273 9.6334C58.6896 9.27537 58.9496 8.97036 59.2773 8.7534C59.6142 8.55657 59.9972 8.45284 60.3873 8.45284C60.7775 8.45284 61.1605 8.55657 61.4973 8.7534C61.8219 8.96262 62.0789 9.26131 62.2373 9.6134C62.4276 10.0339 62.5199 10.4921 62.5073 10.9534V11.2534ZM61.6173 10.9534C61.6438 10.4977 61.5323 10.0447 61.2973 9.6534C61.1961 9.50757 61.0595 9.38981 60.9003 9.31111C60.7412 9.23241 60.5647 9.19535 60.3873 9.2034C60.2109 9.19217 60.0347 9.2279 59.8766 9.30695C59.7185 9.386 59.5842 9.50554 59.4873 9.6534C59.2424 10.0412 59.1237 10.4953 59.1473 10.9534V11.2434C59.1233 11.7001 59.2383 12.1534 59.4773 12.5434C59.579 12.6919 59.7169 12.812 59.8778 12.8925C60.0388 12.9729 60.2176 13.0111 60.3973 13.0034C60.5737 13.0146 60.75 12.9789 60.9081 12.8998C61.0662 12.8208 61.2005 12.7013 61.2973 12.5534C61.5348 12.1595 61.6465 11.7025 61.6173 11.2434V10.9534Z" fill="white"></path><path d="M65.9222 12.0735C65.964 12.1641 65.983 12.2637 65.9773 12.3634C65.9842 12.4541 65.9707 12.5451 65.9378 12.6299C65.9049 12.7147 65.8535 12.791 65.7873 12.8534C65.5829 12.9955 65.3356 13.0626 65.0873 13.0434C64.7912 13.062 64.4978 12.9772 64.2573 12.8034C64.1624 12.7207 64.0877 12.6173 64.0391 12.5011C63.9906 12.3849 63.9694 12.2591 63.9773 12.1334H63.0873C63.0793 12.4328 63.1669 12.7271 63.3373 12.9734C63.5278 13.2228 63.7792 13.4191 64.0673 13.5434C64.3843 13.6752 64.7241 13.7431 65.0673 13.7434C65.5394 13.7704 66.0071 13.6403 66.3973 13.3734C66.5531 13.2581 66.679 13.1071 66.7642 12.9331C66.8495 12.7591 66.8917 12.5671 66.8873 12.3734C66.8905 12.1327 66.832 11.8951 66.7173 11.6834C66.5854 11.4697 66.4035 11.2912 66.1873 11.1634C65.8736 10.9856 65.5372 10.851 65.1873 10.7634C64.886 10.6864 64.599 10.5615 64.3373 10.3934C64.2568 10.3445 64.1904 10.2755 64.1448 10.193C64.0992 10.1106 64.0759 10.0176 64.0773 9.92339C64.0734 9.82392 64.0931 9.72493 64.1348 9.63455C64.1766 9.54416 64.2391 9.46494 64.3173 9.40339C64.5151 9.27203 64.7504 9.20882 64.9873 9.22339C65.2463 9.20521 65.5028 9.28358 65.7073 9.44339C65.7915 9.52452 65.8574 9.6227 65.9005 9.73135C65.9436 9.84001 65.963 9.95663 65.9573 10.0734H66.8373C66.8382 9.79029 66.7585 9.51279 66.6073 9.27339C66.4438 9.02893 66.2152 8.83498 65.9473 8.71339C65.6507 8.57344 65.3253 8.50494 64.9973 8.51339C64.5272 8.48838 64.0633 8.63003 63.6873 8.91339C63.5315 9.02928 63.4051 9.18015 63.3182 9.35384C63.2314 9.52754 63.1866 9.7192 63.1873 9.91339C63.1898 10.149 63.2562 10.3795 63.3795 10.5803C63.5028 10.7811 63.6783 10.9447 63.8873 11.0534C64.2012 11.2359 64.5373 11.3771 64.8873 11.4734C65.1908 11.544 65.4789 11.6694 65.7373 11.8434C65.8169 11.9038 65.8803 11.9828 65.9222 12.0735Z" fill="white"></path><path fill-rule="evenodd" clip-rule="evenodd" d="M73.0573 13.7234H72.9673C72.8044 13.7386 72.6403 13.7386 72.4773 13.7234C72.3288 13.6899 72.1845 13.6396 72.0473 13.5734C71.9154 13.5088 71.794 13.4245 71.6873 13.3234C71.5833 13.2154 71.4987 13.0902 71.4373 12.9534C71.384 13.035 71.3162 13.1062 71.2373 13.1634C71.1547 13.2283 71.064 13.2821 70.9673 13.3234C70.8742 13.3638 70.777 13.394 70.6773 13.4134H70.3773C70.2098 13.4145 70.0436 13.384 69.8873 13.3234C69.7337 13.2669 69.594 13.1783 69.4773 13.0634C69.3565 12.9477 69.2611 12.8081 69.1973 12.6534C69.1226 12.4798 69.0851 12.2924 69.0873 12.1034C69.0851 11.8886 69.1331 11.6764 69.2273 11.4834C69.3176 11.3087 69.4358 11.1499 69.5773 11.0134C69.7356 10.8785 69.9103 10.7643 70.0973 10.6734C70.2895 10.5798 70.4865 10.4964 70.6873 10.4234L70.6173 10.1134L71.4073 9.92339L72.0073 12.2434C72.033 12.3698 72.0916 12.4871 72.1773 12.5834C72.2497 12.6669 72.3381 12.7349 72.4373 12.7834C72.5234 12.8326 72.6188 12.8633 72.7173 12.8734H73.0573V12.9534H73.8273C74.0591 12.9534 74.2903 12.9299 74.5173 12.8834C74.7574 12.8421 74.9946 12.7853 75.2273 12.7134C75.4565 12.6549 75.6806 12.578 75.8973 12.4834C76.0888 12.4113 76.2759 12.3279 76.4573 12.2334L76.1273 12.1334L75.7373 11.9534L75.3773 11.8534L75.0473 11.7634L74.7573 11.7034C74.6943 11.695 74.6304 11.695 74.5673 11.7034H74.4373C74.396 11.7133 74.3581 11.734 74.3273 11.7634C74.2951 11.7957 74.2682 11.8328 74.2473 11.8734C74.2109 11.9212 74.1838 11.9755 74.1673 12.0334L73.4173 11.8034C73.4569 11.6761 73.5071 11.5523 73.5673 11.4334C73.6258 11.3233 73.6999 11.2222 73.7873 11.1334C73.8733 11.0478 73.9753 10.9798 74.0873 10.9334C74.2109 10.8826 74.3439 10.8587 74.4773 10.8634L74.7373 10.9534L75.0873 11.0534L75.5173 11.1834L75.9773 11.3434L76.4173 11.5034L76.8073 11.6434L77.0973 11.7534H77.2473L77.3573 12.4234L77.2473 12.4934L77.0073 12.6534C77.0324 12.7085 77.0661 12.7591 77.1073 12.8034L77.2473 12.8834H78.0773V12.9266L79.1719 12.9502C79.1723 12.9469 79.1728 12.9435 79.1734 12.9401C79.1744 12.9345 79.1757 12.9289 79.1773 12.9234C79.1932 12.9168 79.2102 12.9134 79.2273 12.9134C79.2445 12.9134 79.2615 12.9168 79.2773 12.9234L80.6773 12.9534C80.7099 12.9434 80.7448 12.9434 80.7773 12.9534L80.9873 12.9534C81.0903 12.9658 81.1944 12.9658 81.2973 12.9534C81.3656 12.9305 81.4298 12.8967 81.4873 12.8534C81.5288 12.8074 81.5595 12.7527 81.5773 12.6934C81.5828 12.6268 81.5828 12.56 81.5773 12.4934V11.4934H82.3873V12.4334C82.3822 12.5022 82.391 12.5714 82.4134 12.6367C82.4357 12.7021 82.4711 12.7622 82.5173 12.8134C82.6328 12.9068 82.7792 12.9532 82.9273 12.9434H83.0473C83.0992 12.9324 83.1474 12.9083 83.1873 12.8734C83.2362 12.8336 83.274 12.7819 83.2973 12.7234C83.3323 12.6448 83.3494 12.5594 83.3473 12.4734V11.4734H84.1573V12.4134C84.1501 12.4839 84.158 12.5551 84.1804 12.6224C84.2028 12.6896 84.2393 12.7513 84.2873 12.8034C84.3472 12.8592 84.4184 12.9015 84.496 12.9274C84.5737 12.9533 84.656 12.9622 84.7373 12.9534C84.7902 12.9639 84.8445 12.9639 84.8974 12.9534C84.9506 12.9405 84.9992 12.9128 85.0373 12.8734C85.0786 12.8291 85.1123 12.7785 85.1373 12.7234C85.1498 12.6506 85.1498 12.5762 85.1373 12.5034V11.5034H85.9473V12.5034C85.9437 12.5723 85.9552 12.6412 85.9811 12.7051C86.007 12.7691 86.0467 12.8265 86.0973 12.8734C86.2327 12.9548 86.3897 12.9931 86.5473 12.9834H86.7373V12.9534H87.7373C87.7904 12.9422 87.8412 12.9219 87.8873 12.8934C87.9382 12.8505 87.9821 12.7998 88.0173 12.7434C88.0354 12.6543 88.0354 12.5625 88.0173 12.4734C88.0218 12.4135 88.0218 12.3533 88.0173 12.2934V11.6034C88.0173 11.5334 88.0173 11.4634 87.9674 11.4034C87.9704 11.3568 87.9704 11.31 87.9674 11.2634L88.6073 10.9534V11.2634C88.6139 11.3533 88.6139 11.4435 88.6073 11.5334L88.6673 11.8434V12.3934C88.6695 12.5921 88.6321 12.7893 88.5573 12.9734C88.4866 13.1266 88.3883 13.2656 88.2673 13.3834C88.1462 13.4849 88.0071 13.5629 87.8573 13.6134C87.7141 13.6696 87.5612 13.6968 87.4073 13.6934H86.8673V13.7934H86.5473C86.3516 13.7986 86.1562 13.775 85.9674 13.7234C85.8073 13.6779 85.6601 13.5957 85.5373 13.4834C85.4249 13.5865 85.292 13.6649 85.1474 13.7134C85.0007 13.7697 84.8444 13.7968 84.6873 13.7934C84.5081 13.7982 84.3292 13.7745 84.1573 13.7234C84.0043 13.6754 83.8641 13.5934 83.7473 13.4834C83.633 13.5787 83.5049 13.6563 83.3673 13.7134C83.2295 13.764 83.0841 13.791 82.9373 13.7934C82.7539 13.8009 82.5707 13.7738 82.3974 13.7134C82.2489 13.6645 82.1101 13.5901 81.9873 13.4934C81.6973 13.7031 81.3449 13.8088 80.9873 13.7934H80.5673V13.7034H79.4173C79.4015 13.71 79.3845 13.7134 79.3673 13.7134C79.3502 13.7134 79.3332 13.71 79.3173 13.7034H79.3073C79.2926 13.7064 79.2775 13.7064 79.2628 13.7034H77.9573C77.9395 13.7071 77.921 13.7063 77.9035 13.701C77.897 13.6991 77.8906 13.6965 77.8846 13.6934H77.4773C77.2336 13.6952 76.9931 13.6368 76.7773 13.5234C76.5724 13.4066 76.4056 13.233 76.2973 13.0234L75.7573 13.2634C75.5579 13.3471 75.3543 13.4205 75.1473 13.4834C74.9373 13.5434 74.7173 13.5934 74.4973 13.6334C74.2763 13.6736 74.052 13.6937 73.8273 13.6934H73.0573V13.7234ZM71.0573 12.1034C71.0676 12.0405 71.0676 11.9763 71.0573 11.9134C71.0622 11.8502 71.0622 11.7866 71.0573 11.7234C71.0573 11.6534 71.0573 11.5734 70.9873 11.4934C70.9535 11.4547 70.9524 11.4137 70.9512 11.3703C70.95 11.324 70.9487 11.275 70.9073 11.2234C70.6247 11.3051 70.3577 11.4336 70.1173 11.6034C70.0336 11.6617 69.9652 11.7395 69.9182 11.8301C69.8712 11.9207 69.8469 12.0213 69.8473 12.1234C69.8458 12.1978 69.8667 12.271 69.9073 12.3334C69.9368 12.3996 69.9856 12.4554 70.0473 12.4934C70.1044 12.5351 70.1689 12.5657 70.2373 12.5834C70.3066 12.5983 70.3781 12.5983 70.4473 12.5834C70.5926 12.5672 70.7326 12.5195 70.8573 12.4434C70.9615 12.3583 71.0295 12.2367 71.0473 12.1034H71.0573Z" fill="white"></path><path d="M74.4073 8.96339L73.8273 9.55339L74.4173 10.1534L75.0173 9.56339L74.4073 8.96339Z" fill="white"></path><path d="M87.8073 9.04339L87.2174 9.63339L87.8073 10.2334L88.4073 9.64339L87.8073 9.04339Z" fill="white"></path><path d="M93.6573 11.1934L93.1074 10.6434L93.6474 10.0734L94.2074 10.6434L93.6573 11.1934Z" fill="white"></path><path d="M95.0274 11.1934L94.4773 10.6334L95.0173 10.0734L95.5873 10.6334L95.0274 11.1934Z" fill="white"></path><path d="M106.397 13.7234C106.191 13.7403 105.984 13.7403 105.777 13.7234C105.628 13.701 105.484 13.6572 105.347 13.5934C105.238 13.5426 105.142 13.4673 105.067 13.3734C104.993 13.2769 104.936 13.1688 104.897 13.0534C104.862 12.9225 104.838 12.7886 104.827 12.6534V9.01338H105.647V12.1034C105.635 12.2431 105.635 12.3836 105.647 12.5234C105.651 12.614 105.682 12.7013 105.737 12.7734C105.802 12.8315 105.882 12.8697 105.967 12.8834C106.11 12.8959 106.254 12.8959 106.397 12.8834V12.9534H107.807C107.86 12.9422 107.911 12.9219 107.957 12.8934C108.006 12.8478 108.049 12.7976 108.087 12.7434C108.122 12.6577 108.139 12.5658 108.137 12.4734C108.142 12.4135 108.142 12.3533 108.137 12.2934V12.0734C108.142 11.9935 108.142 11.9133 108.137 11.8334V11.2634L108.737 10.9534C108.743 10.9865 108.743 11.0203 108.737 11.0534V12.3934C108.739 12.5921 108.702 12.7892 108.627 12.9734C108.557 13.1266 108.458 13.2656 108.337 13.3834C108.216 13.4849 108.077 13.5629 107.927 13.6134C107.784 13.6689 107.631 13.696 107.477 13.6934H106.397V13.7234Z" fill="white"></path><path d="M106.377 14.9534L106.977 15.4734L107.477 14.9534L106.917 14.3934L106.377 14.9534Z" fill="white"></path><path d="M107.737 14.9534L108.347 15.4734L108.837 14.9534L108.277 14.3934L107.737 14.9534Z" fill="white"></path><path d="M111.587 13.5234C111.574 13.804 111.517 14.0807 111.417 14.3434C111.326 14.5712 111.19 14.7786 111.017 14.9534C110.837 15.1266 110.623 15.2596 110.387 15.3434C110.121 15.4392 109.84 15.4866 109.557 15.4834H109.157V14.6634H109.557C109.742 14.666 109.927 14.6458 110.107 14.6034C110.248 14.5706 110.377 14.4976 110.477 14.3934C110.579 14.2894 110.655 14.1625 110.697 14.0234C110.739 13.8364 110.752 13.6443 110.737 13.4534V11.4534H111.557L111.587 13.5234Z" fill="white"></path><path d="M113.407 13.7334C113.59 13.7192 113.77 13.6891 113.947 13.6434C114.147 13.6089 114.338 13.534 114.507 13.4234C114.592 13.3702 114.666 13.3025 114.727 13.2234C114.812 13.1195 114.876 12.9996 114.914 12.8708C114.951 12.7419 114.963 12.6068 114.947 12.4734C114.914 12.2873 114.843 12.1102 114.737 11.9534L114.277 11.4934L114.017 11.1034L113.847 10.8534L113.747 10.7034V10.6334L113.517 10.2934L112.837 10.7434L114.057 12.5134C114.089 12.5592 114.112 12.6099 114.127 12.6634C114.135 12.6808 114.139 12.6995 114.139 12.7184C114.139 12.7373 114.135 12.756 114.127 12.7734C114.104 12.8246 114.068 12.869 114.022 12.9022C113.977 12.9355 113.923 12.9566 113.867 12.9634C113.712 12.9893 113.553 12.9893 113.397 12.9634C113.201 12.9471 113.007 12.9136 112.817 12.8634C112.618 12.8173 112.421 12.7606 112.227 12.6934L111.997 13.4734L112.387 13.5934L112.657 13.6734L112.917 13.7334H113.407Z" fill="white"></path><path d="M68.122 17.2031H71.552C71.6448 17.2031 71.7338 17.24 71.7995 17.3056C71.8651 17.3713 71.902 17.4603 71.902 17.5531V29.7031C71.902 29.8066 71.8609 29.9058 71.7877 29.9789C71.7146 30.052 71.6154 30.0931 71.512 30.0931H68.162C68.0576 30.0932 67.9573 30.0524 67.8826 29.9795C67.8079 29.9067 67.7646 29.8075 67.762 29.7031V17.5531C67.7646 17.4594 67.8037 17.3704 67.8709 17.305C67.9381 17.2396 68.0282 17.2031 68.122 17.2031Z" fill="white"></path><path d="M99.272 26.0431H114.352C114.448 26.0442 114.542 26.0698 114.625 26.1175C114.708 26.1653 114.778 26.2336 114.827 26.3159C114.876 26.3981 114.903 26.4917 114.906 26.5875C114.908 26.6833 114.886 26.7782 114.842 26.8631L113.982 28.6031C113.744 29.0583 113.387 29.4397 112.948 29.7059C112.509 29.9721 112.005 30.1129 111.492 30.1131H99.832C99.6602 30.1124 99.4923 30.0619 99.3486 29.9679C99.2049 29.8738 99.0914 29.7402 99.022 29.5831L98.082 27.4631C97.4625 28.2813 96.6611 28.944 95.7412 29.3987C94.8213 29.8535 93.8082 30.0878 92.782 30.0831H91.782C91.6162 30.0841 91.4535 30.0387 91.3122 29.9521C91.1708 29.8655 91.0565 29.7412 90.982 29.5931L90.062 27.7531C89.4361 28.4955 88.6551 29.0915 87.7739 29.4993C86.8928 29.907 85.9329 30.1166 84.962 30.1131H73.482C73.4073 30.1137 73.3338 30.0952 73.2683 30.0595C73.2027 30.0238 73.1474 29.972 73.1074 29.909C73.0674 29.846 73.0441 29.7738 73.0396 29.6994C73.0352 29.6249 73.0497 29.5505 73.082 29.4831L74.402 26.8431C74.5189 26.609 74.6987 26.412 74.9212 26.2743C75.1438 26.1365 75.4003 26.0634 75.662 26.0631H84.942C85.2575 26.0671 85.5707 26.0085 85.8635 25.8908C86.1563 25.7731 86.4229 25.5986 86.6478 25.3773C86.8728 25.1561 87.0518 24.8924 87.1743 24.6017C87.2969 24.3109 87.3607 23.9987 87.362 23.6831V21.6131C87.3646 21.4876 87.4163 21.368 87.5061 21.2802C87.5958 21.1923 87.7164 21.1431 87.842 21.1431H91.072C91.1345 21.1418 91.1967 21.153 91.2549 21.176C91.3131 21.199 91.3661 21.2334 91.4108 21.2772C91.4555 21.321 91.491 21.3733 91.5153 21.4309C91.5395 21.4886 91.552 21.5506 91.552 21.6131V23.7131C91.5499 24.394 91.4351 25.0698 91.212 25.7131C91.1992 25.751 91.1957 25.7914 91.2017 25.8309C91.2077 25.8704 91.2231 25.9079 91.2466 25.9402C91.2701 25.9725 91.3011 25.9987 91.3368 26.0167C91.3725 26.0346 91.412 26.0436 91.452 26.0431H92.842C93.475 26.0432 94.0825 25.7931 94.532 25.3473C94.9815 24.9015 95.2367 24.2962 95.242 23.6631V21.5631C95.242 21.4385 95.2915 21.3189 95.3796 21.2308C95.4678 21.1427 95.5873 21.0931 95.712 21.0931H98.912C99.0366 21.0931 99.1562 21.1427 99.2443 21.2308C99.3325 21.3189 99.382 21.4385 99.382 21.5631V23.6331C99.3846 24.3381 99.2662 25.0382 99.032 25.7031C99.0171 25.7416 99.012 25.783 99.0171 25.8239C99.0221 25.8648 99.0372 25.9038 99.0609 25.9374C99.0847 25.971 99.1164 25.9983 99.1532 26.0167C99.19 26.0352 99.2308 26.0443 99.272 26.0431Z" fill="white"></path><path d="M66.572 29.4631L65.252 26.8231C65.135 26.589 64.9552 26.392 64.7327 26.2542C64.5102 26.1165 64.2537 26.0434 63.992 26.0431H50.142C50.0455 26.0435 49.9506 26.0684 49.8664 26.1154C49.7821 26.1625 49.7112 26.2301 49.6602 26.3121C49.6092 26.394 49.5799 26.4876 49.575 26.584C49.57 26.6803 49.5896 26.7764 49.632 26.8631L50.522 28.5931C50.7574 29.047 51.1135 29.4272 51.551 29.6919C51.9886 29.9565 52.4906 30.0954 53.002 30.0931H66.172C66.2466 30.0937 66.3201 30.0752 66.3857 30.0395C66.4512 30.0038 66.5066 29.952 66.5466 29.889C66.5866 29.826 66.6099 29.7538 66.6143 29.6793C66.6188 29.6048 66.6042 29.5304 66.572 29.4631Z" fill="white"></path><path d="M59.262 31.4731H57.192C57.0956 31.4731 57.0029 31.5107 56.9338 31.5779C56.8647 31.6452 56.8246 31.7367 56.822 31.8331V33.8331C56.8246 33.9295 56.8647 34.0211 56.9338 34.0883C57.0029 34.1555 57.0956 34.1931 57.192 34.1931H59.262C59.3584 34.1931 59.451 34.1555 59.5201 34.0883C59.5892 34.0211 59.6294 33.9295 59.632 33.8331V31.8331C59.6294 31.7367 59.5892 31.6452 59.5201 31.5779C59.451 31.5107 59.3584 31.4731 59.262 31.4731Z" fill="white"></path><path d="M97.222 31.4731H91.642C91.5456 31.4731 91.4529 31.5107 91.3838 31.5779C91.3147 31.6452 91.2746 31.7367 91.272 31.8331V33.8331C91.2746 33.9295 91.3147 34.0211 91.3838 34.0883C91.4529 34.1555 91.5456 34.1931 91.642 34.1931H97.222C97.3184 34.1931 97.411 34.1555 97.4801 34.0883C97.5492 34.0211 97.5894 33.9295 97.592 33.8331V31.8331C97.5894 31.7367 97.5492 31.6452 97.4801 31.5779C97.411 31.5107 97.3184 31.4731 97.222 31.4731Z" fill="white"></path><path d="M60.932 31.4731H66.512C66.6084 31.4731 66.701 31.5107 66.7701 31.5779C66.8392 31.6452 66.8794 31.7367 66.882 31.8331V33.8331C66.8794 33.9295 66.8392 34.0211 66.7701 34.0883C66.701 34.1555 66.6084 34.1931 66.512 34.1931H60.932C60.8356 34.1931 60.7429 34.1555 60.6738 34.0883C60.6047 34.0211 60.5646 33.9295 60.562 33.8331V31.8331C60.5646 31.7367 60.6047 31.6452 60.6738 31.5779C60.7429 31.5107 60.8356 31.4731 60.932 31.4731Z" fill="white"></path><path d="M83.412 31.4731H81.352C81.3039 31.4718 81.256 31.4801 81.2111 31.4976C81.1663 31.5151 81.1254 31.5414 81.0909 31.575C81.0564 31.6085 81.029 31.6487 81.0103 31.693C80.9916 31.7374 80.982 31.785 80.982 31.8331V33.8331C80.982 33.8813 80.9916 33.9289 81.0103 33.9732C81.029 34.0176 81.0564 34.0577 81.0909 34.0913C81.1254 34.1249 81.1663 34.1512 81.2111 34.1687C81.256 34.1861 81.3039 34.1945 81.352 34.1931H83.412C83.4601 34.1945 83.508 34.1861 83.5528 34.1687C83.5977 34.1512 83.6385 34.1249 83.673 34.0913C83.7075 34.0577 83.7349 34.0176 83.7537 33.9732C83.7724 33.9289 83.782 33.8813 83.782 33.8331V31.8331C83.782 31.785 83.7724 31.7374 83.7537 31.693C83.7349 31.6487 83.7075 31.6085 83.673 31.575C83.6385 31.5414 83.5977 31.5151 83.5528 31.4976C83.508 31.4801 83.4601 31.4718 83.412 31.4731Z" fill="white"></path><path d="M28.2559 7.14355C22.4659 7.25355 22.0859 12.3136 22.0859 12.3136C27.9059 12.8036 28.2559 7.14355 28.2559 7.14355Z" fill="white"></path><path d="M26.3359 18.7836C27.4828 19.8157 28.2566 21.1978 28.5369 22.7151C28.8172 24.2324 28.5884 25.7998 27.8859 27.1736C31.6159 20.9436 30.2059 16.0436 30.2059 16.0436C22.1059 11.9836 17.5559 15.4436 17.5559 15.4436C20.7949 15.4332 23.9228 16.6231 26.3359 18.7836Z" fill="white"></path><path d="M17.1659 20.1235C18.1843 18.9694 19.5594 18.189 21.0724 17.9063C22.5854 17.6237 24.1495 17.855 25.5159 18.5635C19.3159 14.8135 14.4459 16.2235 14.4459 16.2235C10.4459 24.3735 13.8459 28.9435 13.8459 28.9435C13.8324 25.6957 15.0141 22.5564 17.1659 20.1235Z" fill="white"></path><path d="M16.4033 25.2784C16.6854 26.7936 17.4596 28.1733 18.6059 29.2035C21.014 31.367 24.1388 32.5606 27.3759 32.5535C27.3759 32.5535 22.8359 36.0135 14.7359 31.9535C14.7359 31.9535 13.3359 27.0435 17.0459 20.8235C16.3471 22.1973 16.1213 23.7632 16.4033 25.2784Z" fill="white"></path><path d="M31.1359 19.0236C31.1485 22.2731 29.9629 25.4132 27.8059 27.8436C26.7891 28.9968 25.4158 29.7769 23.9045 30.0596C22.3932 30.3423 20.8308 30.1113 19.4659 29.4036C25.6559 33.1536 30.5359 31.7336 30.5359 31.7336C34.5759 23.5936 31.1359 19.0236 31.1359 19.0236Z" fill="white"></path></svg>