<svg height="2.5625rem" width="8.4375rem" viewBox="0 0 136 41" fill="none" xmlns="http://www.w3.org/2000/svg"><g clip-path="url(#clip0_29265_6993)"><path d="M131.147 40.7397H5.66477C3.06338 40.7397 0.9375 38.6139 0.9375 36.0125V5.46702C0.9375 2.86562 3.06338 0.739746 5.66477 0.739746H131.147C133.749 0.739746 135.944 2.86562 135.944 5.46702V36.0125C135.958 38.5999 133.749 40.7397 131.147 40.7397Z" fill="#A6A6A6"></path><path d="M134.993 35.9987C134.993 38.1106 133.273 39.8309 131.161 39.8309H5.66451C3.53864 39.8309 1.81836 38.1106 1.81836 35.9987V5.45326C1.81836 3.34137 3.53864 1.62109 5.66451 1.62109H131.147C133.273 1.62109 134.979 3.34137 134.979 5.45326V35.9987H134.993Z" fill="black"></path><path d="M94.712 20.3485C94.7959 20.6143 94.8658 20.894 94.9497 21.1597C94.9777 21.2716 95.0057 21.3975 95.0476 21.5094C95.0896 21.6213 95.1036 21.7611 95.1316 21.873C95.1595 21.9989 95.1875 22.1108 95.2015 22.2366C95.2155 22.3485 95.2434 22.4604 95.2434 22.5583C95.2434 22.5863 95.2434 22.6283 95.2574 22.6702C95.2574 22.7122 95.2574 22.7541 95.2574 22.8101C95.2574 23.0618 95.2155 23.3136 95.1455 23.5513C95.0756 23.7891 94.9637 24.0269 94.8378 24.2366C94.712 24.4604 94.5441 24.6702 94.3623 24.866C94.1805 25.0758 93.9847 25.2576 93.7609 25.4394C93.5511 25.6213 93.3134 25.7751 93.0756 25.929C92.8378 26.0828 92.6001 26.2227 92.3483 26.3346L91.9707 25.5653C92.2784 25.4115 92.5721 25.2297 92.8658 25.0339C93.1595 24.838 93.4113 24.6143 93.635 24.3765C93.8588 24.1387 94.0406 23.887 94.1805 23.6213C94.3204 23.3555 94.3903 23.0758 94.3903 22.7961C94.3903 22.7821 94.3903 22.7541 94.3903 22.7262C94.3903 22.6982 94.3903 22.6562 94.3763 22.6283C94.3623 22.5443 94.3483 22.4325 94.3343 22.3346C94.3204 22.2227 94.2924 22.1108 94.2644 21.9989C94.2364 21.887 94.2085 21.7751 94.1805 21.6632C94.1525 21.5513 94.1246 21.4394 94.0966 21.3415C94.0267 21.0898 93.9567 20.852 93.8728 20.6003L94.712 20.3485ZM94.9218 18.5583L94.2085 19.2716L93.4812 18.5443L94.1945 17.8311L94.9218 18.5583Z" fill="white"></path><path d="M96.7827 23.1876C96.8247 22.5162 96.8527 21.8869 96.8667 21.2994C96.8806 20.712 96.8806 20.1526 96.8667 19.6491C96.8527 19.1456 96.8387 18.698 96.8107 18.2924C96.7828 17.8869 96.7548 17.5512 96.7268 17.2715C96.6988 16.9917 96.6848 16.768 96.6569 16.6141C96.6429 16.4603 96.6289 16.3764 96.6289 16.3764L97.496 16.2505C97.496 16.2645 97.524 16.4463 97.566 16.782C97.5799 16.9498 97.6079 17.1316 97.6219 17.3274C97.6359 17.5232 97.6499 17.733 97.6639 17.9568C97.6779 18.1806 97.6918 18.3903 97.7058 18.5862C97.7198 18.782 97.7198 18.9778 97.7338 19.1596C97.7478 19.705 97.7618 20.3064 97.7478 20.9917C97.7478 21.6771 97.7198 22.4183 97.6639 23.2295L96.7827 23.1876Z" fill="white"></path><path d="M108.754 22.474C108.642 22.3342 108.544 22.1803 108.474 21.9985C107.705 22.8097 106.474 23.2153 104.81 23.2153C103.915 23.2153 103.187 23.1034 102.6 22.8936C102.013 22.6838 101.593 22.3621 101.327 21.9146C101.243 21.7747 101.173 21.6209 101.132 21.467C101.09 21.3132 101.062 21.1593 101.048 21.0055C101.034 20.8516 101.034 20.7118 101.048 20.5579C101.062 20.4181 101.09 20.2782 101.118 20.1384C101.159 19.9985 101.187 19.8726 101.229 19.7607C101.271 19.6488 101.299 19.5509 101.327 19.467C101.355 19.3831 101.383 19.3272 101.411 19.2712C101.439 19.2293 101.453 19.2013 101.453 19.1873L102.208 19.6069C102.208 19.6069 102.194 19.6349 102.166 19.6908C102.139 19.7467 102.111 19.8167 102.083 19.9146C102.055 19.9985 102.013 20.1104 101.985 20.2363C101.957 20.3621 101.929 20.488 101.929 20.6139C101.915 20.7398 101.929 20.8796 101.957 21.0195C101.985 21.1593 102.027 21.2852 102.097 21.4111C102.278 21.7048 102.586 21.9286 103.048 22.0824C103.509 22.2363 104.097 22.3062 104.81 22.3062C105.453 22.3062 106.013 22.2502 106.46 22.1384C106.908 22.0265 107.285 21.8447 107.593 21.6069C107.733 21.495 107.845 21.3831 107.943 21.2572C108.041 21.1314 108.125 21.0055 108.194 20.8656C108.264 20.7258 108.32 20.5999 108.362 20.46C108.404 20.3202 108.446 20.1943 108.488 20.0544L109.327 20.2782C109.313 20.3342 109.299 20.4041 109.285 20.474C109.271 20.544 109.243 20.6279 109.229 20.7118C109.187 20.8796 109.173 21.0335 109.187 21.1454C109.187 21.2712 109.215 21.3971 109.243 21.537C109.271 21.6768 109.341 21.8027 109.425 21.9006C109.635 22.1663 109.985 22.2922 110.474 22.2922C110.6 22.2922 110.698 22.3342 110.782 22.4181C110.866 22.502 110.908 22.5999 110.908 22.7258C110.908 22.8516 110.866 22.9495 110.782 23.0335C110.698 23.1174 110.6 23.1593 110.474 23.1593H110.432C109.677 23.1873 109.118 22.9495 108.754 22.474ZM104.978 18.8796L104.264 19.5929L103.537 18.8796L104.25 18.1663L104.978 18.8796ZM106.782 18.8796L106.069 19.5929L105.341 18.8656L106.055 18.1523L106.782 18.8796Z" fill="white"></path><path d="M110.096 22.7679C110.096 22.6421 110.138 22.5442 110.222 22.4602C110.305 22.3763 110.417 22.3344 110.529 22.3344C110.851 22.3344 111.159 22.3204 111.424 22.2924C111.704 22.2644 111.942 22.2225 112.152 22.1665C112.361 22.1246 112.543 22.0686 112.697 21.9987C112.851 21.9428 112.963 21.8868 113.033 21.8309C113.075 21.8029 113.103 21.7749 113.131 21.747C113.159 21.719 113.173 21.691 113.201 21.663H112.753C112.599 21.663 112.445 21.6491 112.292 21.6211C112.138 21.5931 111.998 21.5651 111.872 21.5092C111.746 21.4533 111.62 21.3973 111.508 21.3274C111.396 21.2575 111.312 21.1735 111.229 21.0756C111.187 21.0197 111.145 20.9637 111.103 20.8798C111.061 20.8099 111.033 20.712 111.005 20.6141C110.977 20.5162 110.963 20.4043 110.963 20.2784C110.963 20.1526 110.963 20.0267 110.991 19.8728C111.033 19.6491 111.089 19.4393 111.173 19.2575C111.257 19.0756 111.354 18.9078 111.466 18.754C111.592 18.5861 111.746 18.4463 111.914 18.3623C112.082 18.2784 112.25 18.2365 112.417 18.2365C112.809 18.2365 113.159 18.4043 113.466 18.754C113.606 18.9078 113.718 19.0756 113.83 19.2714C113.928 19.4672 114.012 19.677 114.082 19.9008C114.152 20.1246 114.194 20.3623 114.208 20.6001C114.236 20.8379 114.236 21.0756 114.208 21.3134C114.194 21.4253 114.166 21.5512 114.138 21.663C114.124 21.705 114.11 21.747 114.096 21.8029C114.082 21.8588 114.054 21.9288 114.012 21.9987C113.97 22.0686 113.914 22.1526 113.844 22.2365C113.774 22.3204 113.69 22.4043 113.578 22.4882C113.438 22.6001 113.257 22.698 113.047 22.7819C112.837 22.8658 112.599 22.9358 112.333 22.9917C112.068 23.0477 111.788 23.0896 111.494 23.1176C111.201 23.1456 110.893 23.1595 110.599 23.1595H110.529C110.403 23.1595 110.305 23.1176 110.222 23.0337C110.152 22.9917 110.096 22.8938 110.096 22.7679ZM113.019 16.74L112.305 17.4533L111.578 16.726L112.292 16.0127L113.019 16.74ZM112.417 19.1176C112.375 19.1176 112.333 19.1316 112.278 19.1735C112.222 19.2155 112.166 19.2714 112.11 19.3554C112.054 19.4393 111.998 19.5372 111.956 19.6491C111.914 19.7609 111.872 19.9008 111.844 20.0407C111.802 20.2644 111.83 20.4183 111.914 20.5302C111.97 20.6001 112.054 20.6561 112.166 20.698C112.278 20.74 112.417 20.7679 112.571 20.7819C112.725 20.7819 112.865 20.7959 112.991 20.7959C113.117 20.7959 113.229 20.7959 113.326 20.7819C113.312 20.5022 113.257 20.2225 113.159 19.9707C113.075 19.719 112.949 19.5092 112.795 19.3414C112.753 19.2854 112.683 19.2435 112.613 19.1875C112.585 19.1456 112.515 19.1176 112.417 19.1176Z" fill="white"></path><path d="M117.454 23.2016C117.132 23.2016 116.852 23.1597 116.629 23.0897C116.405 23.0198 116.209 22.8939 116.041 22.7401C115.943 22.6422 115.873 22.5443 115.817 22.4324C115.762 22.3205 115.734 22.2086 115.706 22.0967C115.678 21.9849 115.664 21.887 115.664 21.789C115.664 21.6911 115.664 21.6072 115.664 21.5373V21.4534C115.664 21.4534 115.664 21.3974 115.664 21.2995C115.664 21.2016 115.664 21.0618 115.664 20.88C115.664 20.6981 115.664 20.5023 115.664 20.2646C115.664 20.0408 115.664 19.789 115.664 19.5373C115.664 19.2856 115.664 19.0198 115.65 18.7541C115.65 18.4744 115.636 18.2226 115.622 17.9569C115.608 17.7051 115.594 17.4674 115.58 17.2576C115.566 17.0478 115.538 16.866 115.51 16.7261L116.377 16.5723C116.405 16.7261 116.433 16.9079 116.447 17.1177C116.461 17.3415 116.489 17.5653 116.503 17.831C116.517 18.0828 116.531 18.3485 116.531 18.6282C116.531 18.9079 116.545 19.1737 116.545 19.4394C116.545 19.6911 116.545 19.9429 116.545 20.1807C116.545 20.4184 116.545 20.6282 116.545 20.81C116.545 20.9918 116.545 21.1457 116.545 21.2716C116.545 21.3974 116.545 21.4674 116.545 21.4814V21.5653C116.545 21.6911 116.545 21.803 116.559 21.9009C116.573 21.9988 116.615 22.0828 116.685 22.1387C116.81 22.2786 117.062 22.3485 117.426 22.3485H117.468C117.524 22.3485 117.58 22.3625 117.636 22.3904C117.692 22.4184 117.734 22.4464 117.775 22.4883C117.817 22.5303 117.845 22.5723 117.873 22.6282C117.901 22.6842 117.915 22.7401 117.915 22.796C117.915 22.9219 117.873 23.0198 117.789 23.1037C117.72 23.1877 117.58 23.2016 117.454 23.2016Z" fill="white"></path><path d="M116.795 22.768C116.795 22.6422 116.837 22.5442 116.921 22.4603C117.005 22.3764 117.103 22.3345 117.229 22.3345H117.718C117.816 22.3345 117.928 22.3345 118.054 22.3345C118.18 22.3345 118.291 22.3205 118.417 22.3205C118.543 22.3205 118.655 22.2925 118.781 22.2645C118.893 22.2366 119.005 22.2086 119.103 22.1666C119.201 22.1247 119.284 22.0827 119.368 22.0128C119.438 21.9568 119.494 21.8869 119.536 21.803C119.592 21.6771 119.606 21.4953 119.592 21.2715C119.564 21.0338 119.508 20.768 119.41 20.4603C119.382 20.3624 119.34 20.2645 119.298 20.1526C119.256 20.0408 119.215 19.9429 119.173 19.8449C119.131 19.7331 119.075 19.6212 119.033 19.5093L119.816 19.1177C119.816 19.1177 119.83 19.1456 119.858 19.2016C119.886 19.2575 119.914 19.3415 119.956 19.4254C119.998 19.5233 120.04 19.6352 120.096 19.761C120.152 19.8869 120.194 20.0268 120.235 20.1666C120.515 21.0058 120.543 21.6631 120.333 22.1387C120.124 22.6142 119.76 22.9219 119.228 23.0757C119.145 23.1037 119.047 23.1177 118.921 23.1317C118.795 23.1456 118.669 23.1596 118.543 23.1596C118.417 23.1596 118.291 23.1736 118.18 23.1736C118.068 23.1736 117.97 23.1736 117.914 23.1736H117.27H117.229C117.103 23.1736 117.005 23.1317 116.921 23.0477C116.823 22.9918 116.795 22.8939 116.795 22.768ZM118.907 24.7121L118.194 25.4254L117.466 24.7121L118.18 23.9988L118.907 24.7121ZM120.725 24.7261L120.012 25.4394L119.284 24.7121L119.998 23.9988L120.725 24.7261Z" fill="white"></path><path d="M123.439 20.3481C123.522 20.6139 123.592 20.8936 123.676 21.1593C123.704 21.2712 123.732 21.3971 123.774 21.509C123.816 21.6209 123.83 21.7607 123.858 21.8726C123.886 21.9985 123.914 22.1104 123.928 22.2363C123.942 22.3481 123.97 22.46 123.97 22.5579C123.97 22.5859 123.97 22.6279 123.984 22.6698C123.984 22.7118 123.984 22.7537 123.984 22.8097C123.984 23.0614 123.942 23.3132 123.872 23.5509C123.802 23.7887 123.69 24.0265 123.564 24.2363C123.439 24.46 123.271 24.6698 123.089 24.8656C122.907 25.0754 122.711 25.2572 122.487 25.4391C122.278 25.6209 122.04 25.7747 121.802 25.9286C121.564 26.0824 121.327 26.2223 121.075 26.3342L120.697 25.5649C121.005 25.4111 121.299 25.2293 121.592 25.0335C121.886 24.8377 122.138 24.6139 122.362 24.3761C122.585 24.1384 122.767 23.8866 122.907 23.6209C123.047 23.3551 123.117 23.0754 123.117 22.7957C123.117 22.7817 123.117 22.7537 123.117 22.7258C123.117 22.6978 123.117 22.6558 123.103 22.6279C123.089 22.5439 123.075 22.4321 123.061 22.3342C123.047 22.2223 123.019 22.1104 122.991 21.9985C122.963 21.8866 122.935 21.7747 122.907 21.6628C122.879 21.5509 122.851 21.4391 122.823 21.3412C122.753 21.0894 122.683 20.8516 122.599 20.5999L123.439 20.3481Z" fill="white"></path><path d="M126.923 23.1877C126.783 23.1877 126.615 23.1737 126.419 23.1317C126.223 23.0898 126.041 23.0478 125.846 22.9919C125.65 22.9359 125.482 22.88 125.328 22.8101C125.174 22.7401 125.048 22.6702 124.979 22.6003L125.342 21.7751C125.454 21.845 125.58 21.915 125.734 21.9849C125.888 22.0548 126.041 22.1108 126.223 22.1527C126.391 22.1947 126.573 22.2366 126.755 22.2646C126.937 22.2926 127.118 22.2926 127.286 22.2786C127.454 22.2646 127.608 22.2227 127.762 22.1667C127.902 22.1108 128.027 22.0129 128.125 21.901C128.209 21.8171 128.209 21.6352 128.153 21.3975C128.125 21.2576 128.069 21.1038 128 20.9499C127.93 20.7961 127.846 20.6422 127.734 20.4744C127.636 20.3206 127.524 20.1667 127.398 20.0129C127.272 19.859 127.146 19.7192 127.006 19.5933C126.867 19.4674 126.741 19.3555 126.601 19.2576C126.461 19.1597 126.321 19.0758 126.195 19.0199L126.545 18.2227C126.713 18.3066 126.895 18.4045 127.062 18.5303C127.244 18.6562 127.412 18.7961 127.58 18.9499C127.748 19.1038 127.902 19.2856 128.055 19.4674C128.209 19.6492 128.349 19.845 128.461 20.0408C128.587 20.2366 128.685 20.4324 128.783 20.6283C128.867 20.8241 128.937 21.0199 128.979 21.2017C129.02 21.3695 129.034 21.5094 129.034 21.6492C129.034 21.7751 129.02 21.901 128.993 21.9989C128.965 22.0968 128.937 22.1947 128.895 22.2646C128.853 22.3485 128.811 22.4045 128.769 22.4604C128.503 22.7821 128.125 23.0059 127.636 23.1038C127.524 23.1317 127.412 23.1597 127.286 23.1597C127.174 23.1877 127.034 23.1877 126.923 23.1877Z" fill="white"></path><path d="M44.4614 18.4463C44.853 18.4463 45.1887 18.3064 45.4684 18.0267C45.5523 17.9428 45.6223 17.8449 45.6782 17.761C45.7341 17.8589 45.8041 17.9428 45.874 18.0267C46.1537 18.3064 46.4754 18.4463 46.867 18.4463C47.2586 18.4463 47.5943 18.3064 47.86 18.0267C48.1397 17.747 48.2656 17.4113 48.2656 17.0197C48.2656 16.6281 48.1257 16.2924 47.86 16.0267C47.5943 15.761 47.2586 15.6211 46.867 15.6211C46.4754 15.6211 46.1397 15.761 45.874 16.0267C45.7901 16.1106 45.7202 16.1945 45.6782 16.2924C45.6223 16.1945 45.5523 16.1106 45.4684 16.0267C45.1887 15.747 44.853 15.6211 44.4614 15.6211C44.0838 15.6211 43.7341 15.761 43.4684 16.0407C43.2027 16.3204 43.0488 16.6421 43.0488 17.0337C43.0488 17.4253 43.1887 17.761 43.4544 18.0407C43.7341 18.3064 44.0698 18.4463 44.4614 18.4463Z" fill="white"></path><path d="M73.1738 16.0409C72.8382 16.0409 72.5585 16.1528 72.3487 16.4045C72.1249 16.6423 72.013 16.936 72.013 17.2716C72.013 17.5094 72.0829 17.873 72.1948 18.3486C72.3067 18.8101 72.3766 19.1737 72.3766 19.4255C72.3766 20.2786 71.7613 20.7122 70.5445 20.7122H70.1109H69.4116H69.1179C68.027 20.7122 66.992 20.2367 65.999 19.2856C64.8382 18.1388 64.069 17.3695 63.6634 16.9639C62.2368 15.5793 61.02 14.4884 59.999 13.6493C59.8312 13.5094 59.7473 13.3556 59.7473 13.1877C59.7473 13.0199 59.8592 12.894 60.055 12.8101C62.0969 12.0129 64.2927 11.3416 66.6144 10.8101C67.3417 10.6563 67.6913 10.2646 67.6913 9.66325C67.6913 8.86604 67.2298 8.46045 66.2927 8.46045C66.1389 8.46045 65.9431 8.48842 65.7333 8.53038C62.3207 9.32758 59.8312 10.2227 58.2368 11.1877C57.5235 11.6213 57.1739 12.3346 57.1739 13.3136C57.1739 13.7891 57.2438 14.1667 57.4116 14.4604C57.6913 14.95 58.6004 15.873 60.1529 17.2017C61.5375 18.3905 62.2228 19.2017 62.2228 19.6213C62.2228 20.1947 61.6354 20.5304 60.4606 20.6563C60.2088 20.6842 59.2578 20.6842 57.5934 20.6842H57.2438H56.8382C55.7333 20.6842 55.1039 20.2367 54.9221 19.3416C54.8242 18.8381 54.7683 18.5304 54.7403 18.4045C54.5864 18.0409 54.3067 17.8591 53.8871 17.8591C53.5095 17.8591 53.2018 18.0968 52.992 18.5863C52.6424 19.3695 52.4326 19.8311 52.3207 19.957C51.5934 20.88 49.6634 21.3416 46.5445 21.3416H45.034C42.9081 21.3416 41.4536 21.1038 40.6704 20.6003C40.1389 20.2646 39.8732 19.7472 39.8732 19.0618C39.8732 18.866 39.9151 18.5584 39.999 18.1667C40.0829 17.7611 40.1249 17.4674 40.1249 17.2716C40.1249 16.6702 39.8312 16.3765 39.2298 16.3765C38.6704 16.3765 38.2228 16.866 37.9291 17.8451C37.7193 18.5304 37.6074 19.2437 37.6074 19.9849C37.6074 22.8381 40.041 24.2646 44.9081 24.2646C49.5795 24.2646 52.4885 23.5374 53.5794 22.0688C54.055 23.0758 54.992 23.5793 56.3767 23.5793H56.5165H57.2298H57.2578C59.3697 23.5793 60.8522 23.4535 61.7193 23.1877C63.048 22.7821 63.8592 21.943 64.1669 20.6842C65.5375 22.6143 67.2438 23.5793 69.2718 23.5793H69.3976H70.0969H70.3766C71.7473 23.5793 72.8102 23.1737 73.5934 22.3765C74.3766 21.5793 74.7543 20.4884 74.7543 19.1038C74.7403 17.0618 74.2228 16.0409 73.1738 16.0409Z" fill="white"></path><path d="M71.1457 25.1035C70.7681 25.1035 70.4184 25.2434 70.1527 25.5231C69.9709 25.7049 69.859 25.9147 69.7891 26.1385C69.7191 25.9007 69.6073 25.7049 69.4254 25.5231C69.1457 25.2434 68.824 25.1035 68.4324 25.1035C68.0408 25.1035 67.7052 25.2434 67.4254 25.5091C67.1457 25.7748 67.0059 26.1105 67.0059 26.5021C67.0059 26.8937 67.1457 27.2294 67.4254 27.5091C67.7052 27.7888 68.0408 27.9287 68.4324 27.9287C68.824 27.9287 69.1597 27.7888 69.4254 27.5091C69.6073 27.3273 69.7052 27.1175 69.7751 26.8797C69.845 27.1175 69.9429 27.3273 70.1247 27.5091C70.4045 27.7888 70.7261 27.9287 71.1177 27.9287C71.5094 27.9287 71.845 27.7888 72.1247 27.5091C72.4045 27.2294 72.5443 26.8937 72.5443 26.5021C72.5443 26.1105 72.4045 25.7748 72.1247 25.5091C71.845 25.2434 71.5513 25.1035 71.1457 25.1035Z" fill="white"></path><path d="M88.488 18.0268C87.9845 17.2296 87.2572 16.824 86.3202 16.824C85.537 16.824 84.7677 17.2436 83.9845 18.0828C83.8307 18.2646 83.4391 18.796 82.8237 19.6772C82.544 20.0828 82.2782 20.3625 82.0125 20.4884C81.7607 20.6282 81.3971 20.6981 80.9216 20.6981H80.5999C79.2992 20.6981 78.6698 19.9009 78.6698 18.3205V10.0268C78.6698 8.92192 78.2502 8.37646 77.4111 8.37646C76.9915 8.37646 76.6558 8.55828 76.4321 8.90793C76.2363 9.21563 76.1523 9.59325 76.1523 10.0268L76.4321 17.873C76.502 19.831 76.7118 21.1457 77.0335 21.859C77.5789 23.0198 78.6698 23.5932 80.3062 23.5932H80.4321H81.1314H81.2013C82.1104 23.5932 82.8796 23.2716 83.509 22.6422C84.2223 23.4953 85.1314 23.9149 86.2642 23.9149C87.1454 23.9149 87.8586 23.5653 88.3901 22.852C88.8796 22.2086 89.1174 21.4534 89.1174 20.5443C89.1454 19.5373 88.9076 18.6981 88.488 18.0268ZM86.2083 21.5233C85.9286 21.5233 85.6488 21.4394 85.3132 21.2856C84.9356 21.0898 84.7537 20.866 84.7537 20.6282C84.7537 20.3065 84.9076 19.9988 85.2293 19.7191C85.5509 19.4394 85.8726 19.2856 86.1803 19.2856C86.502 19.2856 86.7537 19.4394 86.9495 19.7331C87.1034 19.9849 87.1873 20.2786 87.1873 20.6282C87.1873 21.2296 86.8796 21.5233 86.2083 21.5233Z" fill="white"></path><path d="M20.9651 30.684C27.886 30.684 33.4965 25.0735 33.4965 18.1526C33.4965 11.2316 27.886 5.62109 20.9651 5.62109C14.0441 5.62109 8.43359 11.2316 8.43359 18.1526C8.43359 25.0735 14.0441 30.684 20.9651 30.684Z" fill="#0091EA"></path><path d="M28.6569 16.6702C28.559 14.2926 26.601 12.4185 24.2094 12.4185C22.8807 12.4185 21.6779 13.0059 20.8667 13.9289C20.0555 13.0059 18.8527 12.4185 17.524 12.4185C15.1744 12.4185 13.2443 14.2366 13.0765 16.5443C13.0765 16.6003 13.0625 16.6562 13.0625 16.7122V21.7471C13.0625 22.3625 13.566 22.866 14.1814 22.866H14.2094C14.8247 22.866 15.3282 22.3625 15.3282 21.7471V16.88C15.3282 15.6632 16.3212 14.6702 17.538 14.6702C18.7548 14.6702 19.7478 15.6632 19.7478 16.88V20.9919C19.7478 21.6073 20.2513 22.1108 20.8667 22.1108H20.8947C21.5101 22.1108 22.0135 21.6073 22.0135 20.9919V16.88C22.0135 15.6632 23.0066 14.6702 24.2233 14.6702C25.4401 14.6702 26.4331 15.6632 26.4331 16.88V21.7611C26.4331 22.3765 26.9226 22.866 27.538 22.866H27.566C28.1814 22.866 28.6709 22.3765 28.6709 21.7611V16.7821C28.6569 16.7401 28.6569 16.6982 28.6569 16.6702Z" fill="white"></path><path d="M24.4336 23.2857C24.3777 23.2018 24.2239 23.3696 24.2239 23.3696C23.6085 24.0409 22.3218 24.4745 20.9931 24.4745C19.6644 24.4745 18.3917 24.0409 17.7623 23.3696C17.7623 23.3696 17.5945 23.2018 17.5525 23.2857C17.4826 23.3836 17.5805 23.5375 17.5805 23.5375C18.3777 24.6843 19.5805 25.1878 20.9931 25.1878C22.4057 25.1878 23.6085 24.6703 24.4057 23.5375C24.3917 23.5514 24.5036 23.3976 24.4336 23.2857Z" fill="white"></path></g><defs><clipPath id="clip0_29265_6993"><rect width="135.105" height="40" fill="white" transform="translate(0.894531 0.669922)"></rect></clipPath></defs></svg>