<svg xmlns="http://www.w3.org/2000/svg" width="1.5rem" height="1.5rem" fill="#F7C3E1" viewBox="0 0 24 24"><path d="m13.75 9.75-5.327 1.777a.5.5 0 0 0 0 .948l5.327 1.776 1.776 5.327a.5.5 0 0 0 .948 0l1.776-5.327 5.327-1.776a.5.5 0 0 0 0-.948L18.25 9.75l-1.776-5.327a.5.5 0 0 0-.948 0L13.75 9.75ZM4.25 4.25.423 5.528a.5.5 0 0 0 0 .948L4.25 7.751l1.276 3.827a.5.5 0 0 0 .948 0L7.75 7.75l3.827-1.276a.5.5 0 0 0 0-.948L7.75 4.25 6.474.424a.5.5 0 0 0-.948 0L4.25 4.25ZM6.5 17.5l-3.077 1.027a.5.5 0 0 0 0 .948L6.5 20.501l1.026 3.077a.5.5 0 0 0 .948 0L9.5 20.5l3.077-1.026a.5.5 0 0 0 0-.948L9.5 17.5l-1.026-3.077a.5.5 0 0 0-.948 0L6.5 17.5Z"/></svg>