<svg width="17" height="21" viewBox="0 0 17 21" fill="none" xmlns="http://www.w3.org/2000/svg">
<path fill-rule="evenodd" clip-rule="evenodd" d="M8.29789 1.04932C8.73891 1.04932 9.1795 1.20199 9.54158 1.50775L9.63041 1.58738L14.7723 6.47728C15.2755 6.95532 15.5047 7.66811 15.3859 8.3613L15.3628 8.4766L14.0515 14.2022C13.9555 14.6222 13.7353 14.999 13.4238 15.2802L13.3365 15.3545L10.4079 17.7093L9.31671 18.5641C9.0108 18.7488 8.66851 18.8413 8.3265 18.8413C7.99168 18.8413 7.65684 18.7526 7.35631 18.5761L5.94423 17.4558L3.39752 15.3818C3.08086 15.1243 2.84791 14.7729 2.72837 14.3753L2.69594 14.2547L1.30804 8.42254C1.1428 7.72743 1.33632 6.99583 1.81297 6.48732L1.89502 6.40468L6.96681 1.58635C7.3438 1.22798 7.82107 1.04932 8.29789 1.04932Z" fill="#8CF2C2"/>
<path fill-rule="evenodd" clip-rule="evenodd" d="M11.2984 12.3413L13.8544 14.7235C13.7424 14.9331 13.6377 15.1218 13.4617 15.2802L13.3742 15.3545L10.175 17.9193L9.38657 18.5364C9.07063 18.7382 8.71311 18.84 8.35564 18.8413L8.35547 14.5157L11.2984 12.3413Z" fill="#1AB25D"/>
<path fill-rule="evenodd" clip-rule="evenodd" d="M5.38483 12.3413L8.35528 14.5157L8.35546 18.8413H8.34843C8.02502 18.8413 7.70159 18.759 7.40889 18.5953L5.75428 17.2898L3.40418 15.3818C3.19454 15.2119 3.02148 15.001 2.89355 14.7629L5.38483 12.3413Z" fill="#1D9D50"/>
<path fill-rule="evenodd" clip-rule="evenodd" d="M15.3472 7.45898C15.4232 7.74929 15.4381 8.05734 15.3857 8.3616L15.3626 8.47691L14.0458 14.2025C14.0037 14.386 13.9378 14.5612 13.8509 14.7238L11.25 12.3416L12.0657 8.63958L15.3472 7.45898Z" fill="#04D170"/>
<path fill-rule="evenodd" clip-rule="evenodd" d="M1.31477 7.40527L4.51687 8.64931L5.38482 12.3413L2.89354 14.7629C2.82764 14.6403 2.77372 14.5104 2.73295 14.3752L2.70041 14.2546L1.30821 8.42249C1.22703 8.082 1.23219 7.73276 1.31477 7.40527Z" fill="#1A954B"/>
<path fill-rule="evenodd" clip-rule="evenodd" d="M8.32395 1.04932L8.32405 5.09963L4.51655 8.64936L1.31445 7.40532C1.40047 7.06424 1.57047 6.74675 1.81439 6.48732L1.8967 6.40468L6.9842 1.58635C7.36235 1.22798 7.8411 1.04932 8.3194 1.04932H8.32395Z" fill="#21A555"/>
<path fill-rule="evenodd" clip-rule="evenodd" d="M8.30467 5.1084C8.53987 5.1084 8.77487 5.18373 8.97101 5.33457L9.04267 5.39468L11.8904 7.99639C12.1636 8.24569 12.2909 8.61498 12.2339 8.97683L12.2174 9.06015L11.4912 12.1065C11.4404 12.3198 11.327 12.5122 11.1667 12.6594L11.0952 12.7196L8.98902 14.3466C8.79202 14.4986 8.55612 14.5748 8.32052 14.5748C8.11222 14.5748 7.90393 14.5152 7.72257 14.3968L7.64657 14.3425L5.59072 12.7341C5.42193 12.6023 5.29605 12.4241 5.22783 12.2223L5.20217 12.1344L4.43352 9.03138C4.34382 8.66889 4.44497 8.28773 4.6976 8.01798L4.75857 7.95777L7.56747 5.39413C7.77627 5.20346 8.04062 5.1084 8.30467 5.1084Z" fill="#0DC368"/>
<path fill-rule="evenodd" clip-rule="evenodd" d="M7.74988 10.9517C8.22303 10.9517 8.60693 11.3441 8.60693 11.8273C8.60693 12.3107 8.22303 12.7029 7.74988 12.7029C7.27673 12.7029 6.89258 12.3107 6.89258 11.8273C6.89258 11.3441 7.27673 10.9517 7.74988 10.9517ZM9.60078 6.84131L8.83938 9.82211C8.74708 10.1873 8.42463 10.4426 8.05513 10.4426H7.29193L8.20993 6.84131H9.60078Z" fill="#8CF2C2"/>
</svg>
