<svg xmlns="http://www.w3.org/2000/svg" width="20" height="20" fill="#00B862" style="margin-right:.6rem"><path d="M9 2a1 1 0 1 1 0 2H3c-.447 0-1 .553-1 1v12.19c0 .448.362.81.81.81H15c.447 0 1-.553 1-1v-6a1 1 0 1 1 2 0v6c0 1.552-1.448 3-3 3H2.81A2.81 2.81 0 0 1 0 17.19V5c0-1.552 1.448-3 3-3h6Zm-.464 10.764 8.4-8.4a.92.92 0 1 0-1.3-1.3l-8.4 8.4-.433 1.733 1.733-.433ZM18.35 1.65a2.92 2.92 0 0 1 0 4.129l-8.595 8.595a1 1 0 0 1-.465.263l-3.619.905a1 1 0 0 1-1.213-1.213l.905-3.62a1 1 0 0 1 .263-.464l8.596-8.595a2.92 2.92 0 0 1 4.128 0Z"/></svg>