<svg width="44" height="64" viewBox="0 0 44 64" fill="none" xmlns="http://www.w3.org/2000/svg">
<rect opacity="0.1" x="17" y="47" width="10" height="10" rx="5" fill="#181B1F"/>
<path d="M21 22C21 21.4477 21.4477 21 22 21C22.5523 21 23 21.4477 23 22V52C23 52.5523 22.5523 53 22 53C21.4477 53 21 52.5523 21 52V22Z" fill="#181B1F"/>
<g filter="url(#filter0_d)">
<rect x="6" y="5" width="32" height="32" rx="16" fill="white"/>
</g>
<path fill-rule="evenodd" clip-rule="evenodd" d="M36 21C36 13.268 29.732 7 22 7C14.268 7 8 13.268 8 21C8 28.732 14.268 35 22 35C29.732 35 36 28.732 36 21ZM27 21C27 18.2386 24.7614 16 22 16C19.2386 16 17 18.2386 17 21C17 23.7614 19.2386 26 22 26C24.7614 26 27 23.7614 27 21Z" fill="#FF00A6"/>
<defs>
<filter id="filter0_d" x="0" y="0" width="44" height="44" filterUnits="userSpaceOnUse" color-interpolation-filters="sRGB">
<feFlood flood-opacity="0" result="BackgroundImageFix"/>
<feColorMatrix in="SourceAlpha" type="matrix" values="0 0 0 0 0 0 0 0 0 0 0 0 0 0 0 0 0 0 127 0"/>
<feOffset dy="1"/>
<feGaussianBlur stdDeviation="3"/>
<feColorMatrix type="matrix" values="0 0 0 0 0 0 0 0 0 0 0 0 0 0 0 0 0 0 0.1 0"/>
<feBlend mode="normal" in2="BackgroundImageFix" result="effect1_dropShadow"/>
<feBlend mode="normal" in="SourceGraphic" in2="effect1_dropShadow" result="shape"/>
</filter>
</defs>
</svg>
