<svg width="18" height="17" viewBox="0 0 18 17" fill="none" xmlns="http://www.w3.org/2000/svg">
<path d="M12.7498 0.670654C14.3607 0.670654 15.6665 1.97649 15.6665 3.58732C15.6665 4.03482 15.5657 4.45899 15.3857 4.83815L16.4998 4.83732C16.9598 4.83732 17.3332 5.21065 17.3332 5.67065V9.83732C17.3332 10.2973 16.9598 10.6707 16.4998 10.6707H15.6665V15.6707C15.6665 16.0982 15.3448 16.4507 14.9307 16.4982L14.8332 16.504H3.1665C2.7065 16.504 2.33317 16.1307 2.33317 15.6707L2.33317 10.6707H1.49984C1.03984 10.6707 0.666504 10.2973 0.666504 9.83732L0.666504 5.67065C0.666504 5.21065 1.03984 4.83732 1.49984 4.83732L2.614 4.83815C2.434 4.45899 2.33317 4.03482 2.33317 3.58732C2.33317 1.97649 3.639 0.670654 5.24984 0.670654C6.88317 0.670654 8.10067 1.64399 8.949 3.18565L8.99984 3.28399L9.05067 3.18565C9.86317 1.70899 11.0148 0.752321 12.5473 0.675654L12.7498 0.670654ZM8.37484 10.6707L3.99984 10.6707L3.99984 14.8373L8.37484 14.8373L8.37484 10.6707ZM13.9998 10.6707H9.62484V14.8373H13.9998V10.6707ZM8.37484 6.50399L2.33317 6.50399L2.33317 9.00399L8.37484 9.00399L8.37484 6.50399ZM15.6665 6.50399L9.62484 6.50399V9.00399H15.6665V6.50399ZM5.24984 2.33732C4.55984 2.33732 3.99984 2.89732 3.99984 3.58732C3.99984 4.27732 4.55984 4.83732 5.24984 4.83732H7.87817C7.76734 4.54565 7.63651 4.25899 7.48817 3.98899C6.90401 2.92649 6.16817 2.33732 5.24984 2.33732ZM12.7498 2.33732C11.8315 2.33732 11.0957 2.92649 10.5115 3.98899C10.3623 4.25899 10.2323 4.54565 10.1215 4.83732H12.7498C13.4398 4.83732 13.9998 4.27732 13.9998 3.58732C13.9998 2.89732 13.4398 2.33732 12.7498 2.33732Z" fill="#53565C"/>
</svg>
