<svg xmlns="http://www.w3.org/2000/svg" width="24" height="22" fill="#3A3D42" viewBox="0 0 24 26"><path d="M4.9 4.903v4.2h4.2v-4.2H4.9Zm-.9-1.8h6a.9.9 0 0 1 .9.9v6a.9.9 0 0 1-.9.9H4a.9.9 0 0 1-.9-.9v-6a.9.9 0 0 1 .9-.9Zm10.9 6h4.2v-4.2h-4.2v4.2Zm-.9-6h6a.9.9 0 0 1 .9.9v6a.9.9 0 0 1-.9.9h-6a.9.9 0 0 1-.9-.9v-6a.9.9 0 0 1 .9-.9Zm.9 16h4.2v-4.2h-4.2v4.2Zm-.9-6h6a.9.9 0 0 1 .9.9v6a.9.9 0 0 1-.9.9h-6a.9.9 0 0 1-.9-.9v-6a.9.9 0 0 1 .9-.9Zm-9.1 6h4.2v-4.2H4.9v4.2Zm-.9-6h6a.9.9 0 0 1 .9.9v6a.9.9 0 0 1-.9.9H4a.9.9 0 0 1-.9-.9v-6a.9.9 0 0 1 .9-.9Z"/></svg>