<svg xmlns="http://www.w3.org/2000/svg" width="24" height="18" fill="#3A3D42" viewBox="0 0 24 26"><path fill-rule="evenodd" d="M3.106 3.221A1 1 0 0 1 4 2.67h15.999a1 1 0 0 1 .894.552l2.001 4A1 1 0 0 1 23 7.67v1c0 .953-.381 1.818-1 2.45v10.55a1 1 0 0 1-1 1h-6a1 1 0 0 1-1-1v-4.5a2 2 0 1 0-4 0v4.5a1 1 0 0 1-1 1H3a1 1 0 0 1-1-1v-10.55a3.489 3.489 0 0 1-1-2.45v-1a1 1 0 0 1 .106-.448l2-4ZM4 12.133v8.536h4v-3.5a4 4 0 0 1 8 0v3.5h4v-8.536a3.49 3.49 0 0 1-3-1.015 3.49 3.49 0 0 1-2.5 1.05 3.49 3.49 0 0 1-2.5-1.05 3.49 3.49 0 0 1-2.5 1.05 3.49 3.49 0 0 1-2.5-1.05 3.49 3.49 0 0 1-3 1.015Zm17-4.228v.764a1.5 1.5 0 0 1-3 0 1 1 0 1 0-2 0 1.5 1.5 0 0 1-3 0 1 1 0 1 0-2 0 1.5 1.5 0 0 1-3 0 1 1 0 0 0-2 0 1.5 1.5 0 1 1-3 0v-.764l1.618-3.236h14.763L21 7.905Z" clip-rule="evenodd"/></svg>