<svg width="20" height="20" viewBox="0 0 20 20" fill="none" xmlns="http://www.w3.org/2000/svg">
<path fill-rule="evenodd" clip-rule="evenodd" d="M8.27796 2.32753C9.24031 1.42222 10.7409 1.42206 11.7035 2.32714L16.0166 6.38277C16.6641 6.99159 16.9397 7.89839 16.7404 8.76453L15.5316 14.0193C15.4023 14.5813 15.0828 15.0813 14.627 15.4346L11.7114 17.773C10.7982 18.481 9.17448 18.4952 8.27257 17.773L5.45956 15.4151C5.03342 15.0739 4.73069 14.6025 4.59762 14.073L3.27176 8.79785C3.05078 7.91864 3.32308 6.9887 3.98338 6.36754L8.27796 2.32753ZM10.5618 3.54134C10.2409 3.23964 9.74073 3.2397 9.41994 3.54147L5.12536 7.58148C4.90526 7.78854 4.8145 8.09852 4.88816 8.39159L6.21401 13.6668C6.25837 13.8433 6.35928 14.0004 6.50133 14.1141L9.48568 16.5039C9.78632 16.7446 10.2128 16.748 10.5172 16.512L13.6058 14.1174C13.7578 13.9997 13.8643 13.833 13.9074 13.6457L15.1162 8.39089C15.1826 8.10218 15.0907 7.79991 14.8749 7.59697L10.5618 3.54134Z" fill="#53565C"/>
<path d="M9.94594 6.52248L11.5923 6.31575L10.5392 10.945C10.4149 11.4914 9.86594 11.829 9.32221 11.6935L8.69562 11.5373L9.94594 6.52248Z" fill="#53565C"/>
<ellipse cx="9.12533" cy="13.1829" rx="0.833333" ry="0.833334" fill="#53565C"/>
</svg>
