<svg xmlns="http://www.w3.org/2000/svg" width="1.0625rem" height="1rem" fill="#676A70" viewBox="0 0 17 16"><path fill-rule="evenodd" d="M13.833.501c.917 0 1.667.75 1.667 1.667v1.9c.492.291.833.816.833 1.433v5c0 .617-.341 1.142-.833 1.433v1.9c0 .917-.75 1.667-1.667 1.667H2.167c-.925 0-1.667-.75-1.667-1.667V2.168C.5 1.25 1.242.5 2.167.5h11.666Zm0 1.667H2.167v11.666h11.666v-1.666h-5c-.916 0-1.666-.75-1.666-1.667v-5c0-.917.75-1.667 1.666-1.667h5V2.168Zm.834 3.333H8.833v5h5.834v-5Zm-3.334 1.25a1.25 1.25 0 1 1 0 2.5 1.25 1.25 0 0 1 0-2.5Z" clip-rule="evenodd"/></svg>