<svg xmlns="http://www.w3.org/2000/svg" width="68" height="34" fill="none" tabindex="0" viewBox="0 0 56 28"><path fill="#FF00A6" d="M51.257 12.569c-1.167.002-1.847-.786-1.848-1.811-.002-.994.675-1.831 1.842-1.833 1.168-.002 1.847.833 1.849 1.827.002 1.025-.675 1.815-1.843 1.817ZM51.359 1.07h.144V.407h-.233L51.12.8l-.148-.392h-.233v.663h.144V.535h.003l.192.535h.085l.193-.535h.003v.535ZM50.456.535h.202V.407h-.563v.128h.202v.535h.16V.535ZM50.273 8.047h1.636c.792 0 1.483-.536 1.681-1.303L55.216.433a.02.02 0 0 0-.02-.026h-2.94a.02.02 0 0 0-.02.016l-1.963 7.624Z"/><path fill="#FF00A6" fill-rule="evenodd" d="M42.368 5.124a.02.02 0 0 1-.02-.02v-.875a.02.02 0 0 0-.021-.02h-2.83a.02.02 0 0 0-.02.02v11.465c0 .011.009.02.02.02h1.141a1.71 1.71 0 0 0 1.71-1.709v-2.423c0-.019.022-.027.035-.013.616.682 1.56 1 2.473 1 2.397 0 4.054-1.956 4.054-4.29 0-2.32-1.672-4.338-4.086-4.338-.943 0-1.917.376-2.44 1.174a.02.02 0 0 1-.016.009Zm1.73 4.953c-1.167 0-1.845-.789-1.845-1.814 0-.994.678-1.83 1.845-1.83 1.168 0 1.846.836 1.846 1.83 0 1.025-.678 1.814-1.846 1.814ZM32.398 5.124a.02.02 0 0 1-.02-.02v-.895h-2.871v11.505h1.162a1.71 1.71 0 0 0 1.709-1.709v-2.47c0-.002.003-.003.004-.001.616.706 1.576 1.035 2.504 1.035 2.398 0 4.054-1.956 4.054-4.29 0-2.32-1.672-4.338-4.086-4.338-.943 0-1.917.376-2.439 1.174a.02.02 0 0 1-.017.009Zm1.73 4.953c-1.167 0-1.845-.789-1.845-1.814 0-.994.678-1.83 1.846-1.83 1.167 0 1.845.836 1.845 1.83 0 1.025-.678 1.814-1.845 1.814ZM25.778 12.301h1.141a1.71 1.71 0 0 0 1.71-1.709V4.23a.02.02 0 0 0-.02-.02h-2.83a.02.02 0 0 0-.021.02v.714c0 .019-.024.027-.036.013-.602-.682-1.56-1.015-2.473-1.015-2.397 0-4.054 1.987-4.054 4.306 0 2.32 1.688 4.322 4.086 4.322.943 0 1.933-.36 2.44-1.157a.02.02 0 0 1 .037.01v.859c0 .011.009.02.02.02Zm-1.771-2.224c-1.168 0-1.846-.789-1.846-1.814 0-.994.678-1.83 1.846-1.83 1.167 0 1.845.836 1.845 1.83 0 1.025-.678 1.814-1.845 1.814Z" clip-rule="evenodd"/><path fill="#FF00A6" d="M13.008 5.25a.02.02 0 0 1-.02-.02v-1a.02.02 0 0 0-.021-.021h-2.83a.02.02 0 0 0-.02.02v8.052c0 .011.008.02.02.02h1.141a1.71 1.71 0 0 0 1.71-1.709V8.105c0-1.01.33-1.877 1.498-1.877 1.317 0 1.304 1.167 1.295 1.953l-.002.177v3.923c0 .011.01.02.02.02h1.142a1.71 1.71 0 0 0 1.71-1.709V7.301c0-1.988-.868-3.36-3.045-3.36-1.117 0-1.92.33-2.581 1.3a.021.021 0 0 1-.017.01ZM6.616 2.8a1.712 1.712 0 0 0 2.01-.856l.44-.857a.02.02 0 0 0-.008-.027C8.002.466 6.545.092 5.352.092c-2.382 0-4.101 1.577-4.101 3.99 0 2.304 1.278 2.809 3.218 3.36.031.01.064.02.098.029.677.19 1.78.502 1.78 1.328 0 .837-.774 1.2-1.5 1.2-1.056 0-1.971-.553-2.744-1.231L.786 11.244a.02.02 0 0 0 .007.027c1.211.845 2.672 1.346 4.165 1.346 1.199 0 2.445-.331 3.376-1.12.946-.805 1.23-2.02 1.23-3.202 0-1.925-1.278-2.76-2.934-3.25l-.789-.237-.005-.001c-.537-.174-1.367-.443-1.367-1.134 0-.663.757-.994 1.325-.994.28 0 .556.043.822.122Z"/><path fill="#FF00A6" fill-rule="evenodd" d="M38.226 27.641V14.548h-2.871v5.79c-.6-.71-1.578-1.057-2.508-1.057-2.398 0-4.055 1.987-4.055 4.306 0 2.32 1.688 4.322 4.086 4.322.947 0 1.94-.362 2.445-1.167h.032v.9h2.87Zm-4.622-5.868c1.167 0 1.845.836 1.845 1.83 0 1.025-.678 1.814-1.845 1.814-1.168 0-1.846-.789-1.846-1.814 0-.994.678-1.83 1.846-1.83ZM23.56 27.91c2.603 0 4.875-1.562 4.875-4.307 0-2.76-2.272-4.322-4.874-4.322-2.603 0-4.875 1.562-4.875 4.322s2.288 4.306 4.875 4.306Zm0-6.137c1.168 0 1.846.836 1.846 1.83 0 1.025-.678 1.814-1.845 1.814-1.168 0-1.846-.789-1.846-1.814 0-.994.678-1.83 1.846-1.83ZM13.468 27.91c2.603 0 4.874-1.562 4.874-4.307 0-2.76-2.271-4.322-4.874-4.322-2.603 0-4.874 1.562-4.874 4.322s2.287 4.306 4.874 4.306Zm0-6.137c1.167 0 1.846.836 1.846 1.83 0 1.025-.679 1.814-1.846 1.814s-1.845-.789-1.845-1.814c0-.994.678-1.83 1.845-1.83Z" clip-rule="evenodd"/><path fill="#FF00A6" d="M4.795 20.354v-1.988h3.739v-2.619h-6.83v11.894h3.091v-4.669h3.392v-2.619H4.795Z"/></svg>